<svg xmlns="http://www.w3.org/2000/svg" width="31" height="21" viewBox="0 0 31 21" fill="none">
<path d="M28.8986 20.1038C19.6976 20.1038 10.4856 20.1038 1.28462 20.1038C1.24071 20.0709 1.19679 20.027 1.15287 20.005C1.03209 19.9501 0.900336 19.9172 0.801518 19.8513C0.472127 19.6207 0.186655 19.3352 0.0878379 18.929C0.0768582 18.8961 0.0329391 18.8741 0 18.8412C0 12.978 0 7.12582 0 1.26267C0.0439188 1.18581 0.0768569 1.09797 0.120776 1.02111C0.362329 0.570943 0.680741 0.219593 1.19679 0.0878362C1.22973 0.0768565 1.26267 0.0329391 1.2956 0C10.4966 0 19.7086 0 28.9095 0C28.9535 0.0329391 28.9974 0.0768539 29.0413 0.0988133C29.1621 0.153712 29.2938 0.186654 29.3927 0.252532C29.733 0.483105 30.0075 0.779555 30.1063 1.19678C30.1173 1.22972 30.1612 1.25168 30.1942 1.28462C30.1942 7.1368 30.1942 12.989 30.1942 18.8302C30.1612 18.8741 30.1173 18.907 30.0953 18.951C30.0405 19.0717 29.9965 19.1925 29.9307 19.3023C29.7001 19.6427 29.4036 19.9062 28.9864 20.005C28.9535 20.027 28.9315 20.0819 28.8986 20.1038ZM16.6452 10.0684C16.6452 9.27784 16.6452 8.49828 16.6452 7.70774C16.6452 7.49913 16.6342 7.47717 16.4256 7.47717C15.8766 7.47717 15.3167 7.47717 14.7677 7.47717C14.6579 7.47717 14.592 7.51011 14.5481 7.60893C14.4932 7.71873 14.4493 7.82852 14.4054 7.92734C14.3065 8.14693 14.2077 8.35555 14.1199 8.57514C14.0321 8.77278 13.9442 8.95943 13.8564 9.15706C13.7685 9.36568 13.6807 9.57429 13.5819 9.78291C13.4611 10.0574 13.3294 10.3319 13.2086 10.6064C13.1756 10.6723 13.1537 10.7491 13.1207 10.804C13.0658 10.8809 13.0109 10.8699 12.967 10.7821C12.8462 10.4966 12.7255 10.2111 12.5937 9.92564C12.462 9.64017 12.3302 9.36568 12.2094 9.0802C12.1216 8.88257 12.0447 8.67396 11.9569 8.47632C11.8251 8.17987 11.6824 7.88342 11.5397 7.58697C11.5177 7.54305 11.4518 7.48815 11.3969 7.48815C10.815 7.47717 10.2331 7.47717 9.66213 7.48815C9.56332 7.48815 9.5194 7.53207 9.5194 7.64187C9.5194 9.00335 9.5194 10.3648 9.53038 11.7263C9.53038 11.8361 9.54136 11.9569 9.53038 12.0667C9.53038 12.1216 9.47548 12.1655 9.45352 12.2094C9.42058 12.1765 9.36568 12.1435 9.34372 12.0996C9.28882 12.0008 9.25589 11.891 9.21197 11.7812C9.08021 11.4848 8.93747 11.1883 8.80572 10.8919C8.68494 10.6174 8.56417 10.3539 8.44339 10.0794C8.31163 9.79389 8.17988 9.50842 8.04812 9.22295C7.96028 9.02531 7.87244 8.81669 7.77363 8.60808C7.64187 8.30065 7.51011 8.00419 7.36738 7.70774C7.32346 7.60893 7.3015 7.48815 7.15876 7.48815C6.66468 7.48815 6.17059 7.48815 5.68748 7.49913C5.64357 7.49913 5.56671 7.53207 5.55573 7.57599C5.40201 7.92734 5.24829 8.27869 5.09458 8.63004C5.00674 8.83865 4.9189 9.03629 4.83107 9.2449C4.69931 9.54135 4.57853 9.82682 4.44678 10.1233C4.31502 10.4197 4.18326 10.7272 4.05151 11.0236C3.93073 11.2981 3.80995 11.5726 3.68918 11.8471C3.59036 12.0667 3.50252 12.2863 3.40371 12.5059C3.35979 12.6047 3.37077 12.6376 3.49154 12.6376C3.84289 12.6376 4.20522 12.6486 4.55657 12.6376C4.62245 12.6376 4.71029 12.5718 4.73225 12.5169C4.85303 12.2424 4.96282 11.9459 5.07262 11.6714C5.14948 11.4738 5.16046 11.4628 5.38005 11.4628C6.10471 11.4628 6.84035 11.4628 7.56501 11.4628C7.66383 11.4628 7.71873 11.4957 7.76265 11.5836C7.86146 11.8251 7.98224 12.0667 8.07008 12.3192C8.17987 12.6486 8.17987 12.6486 8.53123 12.6486C9.23393 12.6486 9.93663 12.6486 10.6393 12.6486C10.7821 12.6486 10.804 12.6266 10.804 12.4839C10.804 11.353 10.804 10.2221 10.793 9.10217C10.793 9.08021 10.7821 9.05825 10.793 9.03629C10.815 9.00335 10.837 8.98139 10.8589 8.94845C10.8809 8.97041 10.9138 8.99237 10.9248 9.02531C10.9468 9.0802 10.9687 9.13511 10.9907 9.17902C11.0785 9.39862 11.1773 9.60724 11.2652 9.82683C11.353 10.0354 11.4518 10.2331 11.5397 10.4307C11.6275 10.6174 11.7153 10.815 11.7922 11.0017C11.924 11.2981 12.0447 11.5946 12.1765 11.891C12.2643 12.0996 12.3741 12.2973 12.451 12.4949C12.4949 12.6047 12.5498 12.6376 12.6486 12.6376C12.9451 12.6376 13.2415 12.6376 13.527 12.6376C13.6478 12.6376 13.7136 12.5937 13.7576 12.4729C13.8015 12.3522 13.8564 12.2314 13.9113 12.1106C14.043 11.8251 14.1748 11.5397 14.3065 11.2542C14.3944 11.0675 14.4712 10.8699 14.5591 10.6832C14.6908 10.4088 14.8226 10.1343 14.9543 9.85977C15.0751 9.60723 15.1739 9.34372 15.2947 9.09119C15.3057 9.06923 15.3496 9.03629 15.3716 9.03629C15.3935 9.03629 15.4155 9.08021 15.4265 9.11315C15.4375 9.13511 15.4265 9.17903 15.4265 9.20099C15.4265 10.299 15.4265 11.3969 15.4155 12.4949C15.4155 12.5937 15.4594 12.6376 15.5582 12.6376C15.8766 12.6376 16.1951 12.6376 16.5244 12.6376C16.6342 12.6376 16.6891 12.5937 16.6891 12.4729C16.6342 11.6604 16.6452 10.8589 16.6452 10.0684ZM17.3589 10.0354C17.3589 10.815 17.3589 11.5946 17.3589 12.3631C17.3589 12.5937 17.3699 12.5937 17.6005 12.5937C19.0937 12.5937 20.5869 12.5937 22.0802 12.5937C22.2009 12.5937 22.2888 12.5608 22.3656 12.4729C22.8048 11.9898 23.244 11.5067 23.6722 11.0126C23.7601 10.9248 23.815 10.9138 23.9028 11.0017C23.9906 11.0895 24.0675 11.1993 24.1553 11.2871C24.5177 11.7044 24.88 12.1216 25.2423 12.5388C25.2753 12.5717 25.3411 12.6047 25.3851 12.6047C25.8242 12.6157 26.2525 12.6047 26.6916 12.6047C26.7246 12.6047 26.7575 12.5827 26.8014 12.5718C26.7905 12.5278 26.7795 12.4839 26.7575 12.462C26.0768 11.6714 25.396 10.8809 24.7153 10.0903C24.6384 10.0025 24.6275 9.92564 24.7263 9.83781C24.9349 9.62919 25.1435 9.4096 25.3411 9.19C25.8133 8.67396 26.2854 8.14694 26.7465 7.63089C26.7685 7.59795 26.7795 7.55403 26.7905 7.52109C26.7465 7.51011 26.7026 7.48815 26.6587 7.48815C26.2415 7.48815 25.8352 7.48815 25.418 7.48815C25.3521 7.48815 25.2643 7.52109 25.2204 7.56501C24.7922 8.02616 24.3639 8.48731 23.9357 8.94845C23.8589 9.03629 23.793 9.03629 23.7161 8.94845C23.2989 8.49829 22.8927 8.03714 22.4645 7.58697C22.4096 7.53207 22.3217 7.47717 22.2449 7.47717C20.6638 7.46619 19.0937 7.47717 17.5126 7.47717C17.3479 7.47717 17.326 7.49913 17.326 7.65284C17.3589 8.45436 17.3589 9.2449 17.3589 10.0354Z" fill="#00AAEE"/>
<path d="M16.645 10.0683C16.645 10.8699 16.645 11.6714 16.645 12.4619C16.645 12.5827 16.6011 12.6266 16.4803 12.6266C16.1619 12.6266 15.8435 12.6266 15.5141 12.6266C15.4152 12.6266 15.3713 12.5937 15.3713 12.4839C15.3713 11.3859 15.3823 10.2879 15.3823 9.18996C15.3823 9.15702 15.3933 9.12409 15.3823 9.10213C15.3713 9.06919 15.3494 9.03625 15.3274 9.02527C15.3055 9.02527 15.2615 9.05821 15.2506 9.08017C15.1408 9.3327 15.031 9.59621 14.9102 9.84875C14.7784 10.1232 14.6467 10.3977 14.5149 10.6722C14.4271 10.8589 14.3502 11.0565 14.2624 11.2432C14.1306 11.5286 13.9989 11.8141 13.8671 12.0996C13.8122 12.2204 13.7573 12.3411 13.7134 12.4619C13.6695 12.5717 13.6036 12.6266 13.4828 12.6266C13.1864 12.6266 12.8899 12.6266 12.6044 12.6266C12.4946 12.6266 12.4397 12.5827 12.4068 12.4839C12.33 12.2753 12.2202 12.0776 12.1323 11.88C12.0006 11.5835 11.8798 11.2871 11.748 10.9906C11.6602 10.793 11.5833 10.6063 11.4955 10.4197C11.4077 10.2221 11.3088 10.0134 11.221 9.81581C11.1222 9.59621 11.0343 9.3876 10.9465 9.16801C10.9246 9.11311 10.9136 9.05821 10.8806 9.01429C10.8697 8.98135 10.8367 8.97037 10.8148 8.93743C10.7928 8.97037 10.7708 8.99233 10.7489 9.02527C10.7379 9.04723 10.7489 9.06919 10.7489 9.09115C10.7489 10.2221 10.7489 11.353 10.7599 12.4729C10.7599 12.6266 10.7379 12.6376 10.5952 12.6376C9.89246 12.6376 9.18976 12.6376 8.48706 12.6376C8.13571 12.6376 8.14669 12.6266 8.02591 12.3082C7.93807 12.0557 7.8173 11.8141 7.71848 11.5726C7.68554 11.4847 7.61966 11.4518 7.52084 11.4518C6.79618 11.4518 6.06054 11.4518 5.33588 11.4518C5.11629 11.4518 5.10531 11.4628 5.02845 11.6604C4.91866 11.9459 4.80886 12.2313 4.68808 12.5058C4.66612 12.5607 4.56731 12.6266 4.51241 12.6266C4.16106 12.6376 3.79873 12.6376 3.44738 12.6266C3.3266 12.6266 3.31562 12.5937 3.35954 12.4949C3.45836 12.2753 3.54619 12.0557 3.64501 11.8361C3.76579 11.5616 3.88657 11.2871 4.00734 11.0126C4.1391 10.7161 4.27085 10.4087 4.40261 10.1123C4.53437 9.81581 4.65514 9.53034 4.7869 9.23388C4.87474 9.02527 4.96258 8.82764 5.05041 8.61902C5.20413 8.26767 5.34686 7.91632 5.51156 7.56497C5.53352 7.52105 5.5994 7.48811 5.64332 7.48811C6.1374 7.47713 6.63149 7.47713 7.1146 7.47713C7.25733 7.47713 7.27929 7.59791 7.32321 7.69673C7.46595 7.99318 7.5977 8.30061 7.72946 8.59706C7.8173 8.80568 7.90514 9.00331 8.00395 9.21192C8.13571 9.4974 8.26746 9.78287 8.39922 10.0683C8.52 10.3428 8.64078 10.6063 8.76155 10.8808C8.89331 11.1773 9.03604 11.4737 9.1678 11.7702C9.21172 11.869 9.25564 11.9788 9.29956 12.0886C9.32152 12.1325 9.37641 12.1655 9.40935 12.1984C9.44229 12.1545 9.48621 12.0996 9.48621 12.0557C9.49719 11.9459 9.48621 11.8251 9.48621 11.7153C9.48621 10.3538 9.48621 8.99233 9.47523 7.63085C9.47523 7.53203 9.51915 7.47713 9.61797 7.47713C10.1999 7.47713 10.7818 7.47713 11.3528 7.47713C11.3967 7.47713 11.4735 7.53203 11.4955 7.57595C11.6382 7.8724 11.781 8.16885 11.9127 8.46531C12.0006 8.66294 12.0774 8.87155 12.1653 9.06919C12.297 9.35466 12.4288 9.62916 12.5495 9.91463C12.6813 10.2001 12.8021 10.4856 12.9229 10.771C12.9558 10.8589 13.0217 10.8808 13.0766 10.793C13.1205 10.7381 13.1425 10.6612 13.1644 10.5954C13.2852 10.3209 13.4169 10.0464 13.5377 9.77189C13.6365 9.56328 13.7244 9.35466 13.8122 9.14605C13.9001 8.94841 13.9879 8.75078 14.0757 8.56413C14.1745 8.34453 14.2734 8.13591 14.3612 7.91632C14.4051 7.80652 14.46 7.69672 14.5039 7.59791C14.5479 7.51007 14.6137 7.46616 14.7235 7.46616C15.2725 7.46616 15.8325 7.46616 16.3815 7.46616C16.5901 7.46616 16.6011 7.47713 16.6011 7.69673C16.645 8.48727 16.645 9.2778 16.645 10.0683ZM6.38994 10.3538C6.59855 10.3538 6.80716 10.3538 7.02676 10.3538C7.13655 10.3538 7.18047 10.2879 7.13655 10.1891C7.0597 10.0134 6.98284 9.83777 6.895 9.6621C6.76325 9.36564 6.63149 9.06919 6.48875 8.77274C6.47777 8.7398 6.43386 8.69588 6.4119 8.6849C6.37896 8.6849 6.32406 8.70686 6.3021 8.7398C6.25818 8.80568 6.23622 8.88253 6.21426 8.95939C6.03859 9.37662 5.85193 9.78287 5.67626 10.2001C5.62136 10.3209 5.64332 10.3538 5.78605 10.3538C5.98369 10.3538 6.18132 10.3538 6.38994 10.3538Z" fill="white"/>
<path d="M17.3594 10.0355C17.3594 9.24491 17.3594 8.45438 17.3594 7.66384C17.3594 7.49914 17.3813 7.48816 17.546 7.48816C19.1271 7.48816 20.6972 7.48816 22.2783 7.48816C22.3551 7.48816 22.454 7.53208 22.4979 7.59796C22.9151 8.04812 23.3323 8.49829 23.7496 8.95944C23.8264 9.0363 23.8813 9.04728 23.9692 8.95944C24.3864 8.49829 24.8146 8.03715 25.2538 7.576C25.2977 7.53208 25.3855 7.49914 25.4514 7.49914C25.8686 7.48816 26.2749 7.48816 26.6921 7.49914C26.736 7.49914 26.78 7.5211 26.8239 7.53208C26.8129 7.56502 26.8019 7.61992 26.78 7.64188C26.3078 8.1689 25.8467 8.68495 25.3746 9.201C25.1769 9.42059 24.9683 9.64018 24.7597 9.84879C24.6719 9.93663 24.6828 10.0135 24.7487 10.1013C25.4295 10.8919 26.1102 11.6824 26.7909 12.4729C26.8129 12.5059 26.8239 12.5498 26.8349 12.5827C26.8019 12.5937 26.769 12.6157 26.7251 12.6157C26.2859 12.6157 25.8577 12.6157 25.4185 12.6157C25.3636 12.6157 25.3087 12.5827 25.2757 12.5498C24.9134 12.1326 24.5511 11.7153 24.1887 11.2981C24.1009 11.1993 24.0241 11.1005 23.9362 11.0126C23.8484 10.9248 23.7935 10.9248 23.7056 11.0236C23.2665 11.5067 22.8273 12.0008 22.3991 12.4839C22.3222 12.5718 22.2344 12.6047 22.1136 12.6047C20.6203 12.6047 19.1271 12.6047 17.6339 12.6047C17.4033 12.6047 17.3923 12.5937 17.3923 12.3741C17.3594 11.5946 17.3594 10.815 17.3594 10.0355ZM20.1372 11.5506C20.5106 11.5506 20.8729 11.5397 21.2462 11.5506C21.4877 11.5616 21.6524 11.4958 21.8062 11.3091C22.1575 10.8919 22.5418 10.4966 22.9151 10.0903C22.981 10.0245 23.0249 9.94762 22.9371 9.85978C22.5089 9.45353 22.0806 9.04728 21.6415 8.64103C21.5975 8.59711 21.5097 8.56417 21.4438 8.56417C20.5654 8.56417 19.6871 8.56417 18.8087 8.55319C18.6769 8.55319 18.644 8.60809 18.644 8.72887C18.644 8.93748 18.644 9.1461 18.644 9.34373C18.644 9.49745 18.6769 9.53039 18.8307 9.53039C19.5663 9.53039 20.3019 9.53039 21.0266 9.53039C21.1364 9.53039 21.2352 9.53039 21.345 9.53039C21.4438 9.53039 21.4877 9.5743 21.4768 9.6841C21.4658 9.88173 21.4658 10.0684 21.4768 10.266C21.4768 10.4746 21.4548 10.4966 21.2572 10.4966C20.4447 10.4966 19.6432 10.4966 18.8307 10.4966C18.6769 10.4966 18.644 10.5186 18.644 10.6833C18.644 10.9138 18.644 11.1444 18.644 11.364C18.644 11.5177 18.666 11.5397 18.8197 11.5397C19.2589 11.5507 19.6981 11.5506 20.1372 11.5506Z" fill="white"/>
<path d="M6.39046 10.3539C6.19282 10.3539 5.98421 10.3539 5.78657 10.3539C5.65482 10.3539 5.62188 10.321 5.67678 10.2002C5.85245 9.78295 6.0391 9.37671 6.21478 8.95948C6.24772 8.88262 6.26968 8.80576 6.30262 8.73988C6.32458 8.70694 6.37948 8.674 6.41242 8.68498C6.44536 8.68498 6.47829 8.73988 6.48927 8.77282C6.62103 9.06927 6.75279 9.36573 6.89552 9.66218C6.97238 9.83786 7.06022 10.0135 7.13707 10.1892C7.18099 10.288 7.13707 10.3539 7.02728 10.3539C6.80768 10.3649 6.59907 10.3539 6.39046 10.3539Z" fill="#00AAEE"/>
<path d="M20.1368 11.5507C19.6976 11.5507 19.2584 11.5507 18.8192 11.5507C18.6655 11.5507 18.6436 11.5287 18.6436 11.375C18.6436 11.1444 18.6436 10.9138 18.6436 10.6942C18.6436 10.5405 18.6655 10.5076 18.8302 10.5076C19.6427 10.5076 20.4442 10.5076 21.2567 10.5076C21.4653 10.5076 21.4763 10.4856 21.4763 10.277C21.4763 10.0794 21.4763 9.89272 21.4763 9.69509C21.4763 9.59627 21.4324 9.55235 21.3446 9.54137C21.2348 9.54137 21.1359 9.54137 21.0261 9.54137C20.2905 9.54137 19.5549 9.54137 18.8302 9.54137C18.6765 9.54137 18.6436 9.51941 18.6436 9.35471C18.6436 9.1461 18.6436 8.93749 18.6436 8.73985C18.6436 8.61907 18.6765 8.56418 18.8083 8.56418C19.6866 8.56418 20.565 8.56418 21.4434 8.57516C21.5093 8.57516 21.5971 8.6081 21.641 8.65201C22.0802 9.05826 22.5084 9.46451 22.9366 9.87076C23.0245 9.9586 22.9805 10.0355 22.9147 10.1013C22.5413 10.5076 22.1571 10.9029 21.8057 11.3201C21.652 11.5067 21.4873 11.5726 21.2457 11.5616C20.8834 11.5397 20.5101 11.5507 20.1368 11.5507Z" fill="#00AAEE"/>
</svg>