<svg xmlns="http://www.w3.org/2000/svg" xmlns:xlink="http://www.w3.org/1999/xlink" width="44" height="23" version="1.1" id="Camada_1" x="0px" y="0px" viewBox="0 0 29 21" style="enable-background:new 0 0 29 21;" xml:space="preserve">
<style type="text/css">
	.st0{fill:#1565BF;}
	.st1{fill:#FFFFFF;}
</style>
    <path class="st0" d="M14.5,0c3.8,0,7.6,0,11.4,0c1.4,0,2.4,0.8,2.7,2c0.1,0.3,0.1,0.6,0.1,0.9c0,4.9,0,9.8,0,14.7  c0,1.7-1.1,2.9-2.8,2.9c-7.6,0-15.2,0-22.8,0c-1.7,0-2.9-1.2-2.9-2.9c0-4.9,0-9.8,0-14.6C0.2,1.1,1.3,0,3.1,0C6.9,0,10.7,0,14.5,0z"/>
    <path class="st1" d="M7.1,10.7c0-0.4,0-0.8,0-1.1c0-0.1,0-0.1,0.1-0.2C7.6,6.2,9.3,4.1,12.3,3c0.6-0.2,1.2-0.3,1.8-0.4  c0.4,0,0.8,0,1.1,0c0.1,0,0.1,0,0.2,0.1c3.2,0.4,5.3,2.2,6.4,5.2C22,8.4,22,9,22.1,9.5c0,0.4,0,0.8,0,1.1c0,0.2-0.1,0.4-0.1,0.6  c-0.7,4-4.1,6.7-8.1,6.3c-2.9-0.2-5.5-2.3-6.4-5.1C7.4,11.9,7.3,11.3,7.1,10.7z M21.5,10.1c0-3.8-3.1-6.9-6.9-6.9  c-3.8,0-6.9,3.1-6.9,6.9c0,3.8,3.1,6.9,6.9,6.9C18.5,17,21.5,13.9,21.5,10.1z"/>
    <g>
	<path class="st1" d="M14.6,2.6c-4.2,0-7.5,3.4-7.5,7.5s3.4,7.5,7.5,7.5s7.5-3.4,7.5-7.5S18.8,2.6,14.6,2.6z M14.6,17   c-3.8,0-6.9-3.1-6.9-6.9c0-3.8,3.1-6.9,6.9-6.9s6.9,3.1,6.9,6.9C21.5,13.9,18.4,17,14.6,17z"/>
</g>
    <g>
	<path class="st1" d="M15.1,10.9v0.7c0,0.3-0.2,0.5-0.5,0.5c-0.3,0-0.5-0.2-0.5-0.5v-1.1c0,0,0,0,0,0c0,0,0,0,0,0   c0-0.3,0.3-0.5,0.5-0.5c0.7,0,1.3-0.5,1.3-1.2c0-0.7-0.6-1.2-1.3-1.2c-0.5,0-0.8,0.2-1.1,0.6c-0.2,0.3-0.5,0.4-0.7,0.2   c-0.3-0.2-0.3-0.5-0.2-0.7c0.4-0.7,1.1-1.1,2-1.1c1.3,0,2.3,1,2.3,2.3C16.9,9.7,16.2,10.6,15.1,10.9z M15.1,13.3v0.2   c0,0.3-0.2,0.5-0.5,0.5c-0.3,0-0.5-0.2-0.5-0.5v-0.2c0-0.3,0.3-0.5,0.5-0.5C14.9,12.8,15.1,13,15.1,13.3z"/>
</g>
</svg>