<svg xmlns="http://www.w3.org/2000/svg" width="37" height="26" viewBox="0 0 37 26" fill="none">
<path d="M12.0938 7.24491C12.0938 9.05615 13.2039 10.5753 14.7814 11.1595V3.33029C13.2039 3.91456 12.0938 5.43367 12.0938 7.24491Z" fill="#006AC9"/>
<path d="M17.7617 3.33029V11.1595C19.3392 10.5753 20.4494 8.99773 20.4494 7.24491C20.4494 5.43367 19.3392 3.91456 17.7617 3.33029Z" fill="#004A97"/>
<path d="M17.7607 11.1596C19.3383 10.5754 20.4484 8.99784 20.4484 7.24503L17.7607 11.1596Z" fill="#023563"/>
<path d="M19.6892 0H16.3005C12.269 0 8.99707 2.97979 8.99707 7.3034C8.99707 11.2764 12.269 14.4899 16.3005 14.4899H19.6892C23.6623 14.4899 27.2848 11.2764 27.2848 7.3034C27.2263 2.97979 23.6039 0 19.6892 0ZM16.3005 13.8472C12.6196 13.8472 9.6982 10.8675 9.6982 7.24497C9.6982 3.56406 12.678 0.584272 16.3005 0.584272C19.9814 0.584272 22.9612 3.56406 22.9612 7.24497C22.9027 10.9259 19.9229 13.8472 16.3005 13.8472Z" fill="#023563"/>
<path d="M1.51911 19.4563C1.51911 20.0405 1.9281 20.099 2.33709 20.099C3.97305 20.099 4.55732 18.872 4.55732 17.7035C4.55732 16.2428 3.62248 15.2495 2.1618 15.2495C1.86967 15.2495 1.69439 15.2495 1.57753 15.3079V19.4563H1.51911ZM0.759553 15.8338C0.759553 15.1327 0.40899 15.1911 0.0584272 15.1911V15.0158C0.350563 15.0158 0.642699 15.0158 0.934835 15.0158C1.2854 15.0158 1.69439 15.0158 2.27866 15.0158C4.26518 15.0158 5.31687 16.3596 5.31687 17.7035C5.31687 18.463 4.84945 20.3911 2.1618 20.3911C1.75281 20.3911 1.40225 20.3911 1.05169 20.3911C0.701126 20.3911 0.350563 20.3911 0 20.3911V20.2158C0.467417 20.1574 0.701126 20.1574 0.701126 19.6316V15.8338H0.759553Z" fill="#004A97"/>
<path d="M6.48595 15.6585C6.31067 15.6585 6.13539 15.4832 6.13539 15.2495C6.13539 15.0742 6.31067 14.8989 6.48595 14.8989C6.66123 14.8989 6.83651 15.0742 6.83651 15.2495C6.83651 15.4832 6.66123 15.6585 6.48595 15.6585ZM5.66797 20.1574H5.84325C6.07696 20.1574 6.19381 20.1574 6.19381 19.9237V17.8203C6.19381 17.4697 6.07696 17.4113 5.78482 17.2944V17.1776C6.13539 17.0607 6.54438 16.9439 6.6028 16.8855C6.66123 16.827 6.71966 16.827 6.71966 16.827C6.77808 16.827 6.77809 16.8854 6.77809 16.9439V19.8652C6.77809 20.0989 6.95337 20.0989 7.18708 20.0989H7.30393V20.2742C7.07022 20.2742 6.77809 20.2742 6.48595 20.2742C6.19381 20.2742 5.9601 20.2742 5.66797 20.2742C5.66797 20.2742 5.66797 20.1574 5.66797 20.1574Z" fill="#004A97"/>
<path d="M8.00534 17.8788C8.00534 17.5866 7.94691 17.5282 7.53792 17.3529V17.2361C7.88848 17.1192 8.18062 17.0024 8.53118 16.8855C8.53118 16.8855 8.58961 16.8855 8.58961 16.9439V17.4698C8.9986 17.1776 9.40759 16.8855 9.93343 16.8855C10.5761 16.8855 10.8098 17.3529 10.8098 17.9372V19.9237C10.8098 20.1574 10.9851 20.1574 11.2188 20.1574H11.3357V20.3327C11.0436 20.3327 10.8098 20.3327 10.5177 20.3327C10.2256 20.3327 9.99186 20.3327 9.69973 20.3327V20.1574H9.81658C10.0503 20.1574 10.1671 20.1574 10.1671 19.9237V17.9372C10.1671 17.5282 9.87501 17.2945 9.46602 17.2945C9.23231 17.2945 8.82332 17.4698 8.58961 17.6451V19.9237C8.58961 20.1574 8.76489 20.1574 8.9986 20.1574H9.11545V20.3327C8.82332 20.3327 8.58961 20.3327 8.29747 20.3327C8.00534 20.3327 7.77163 20.3327 7.47949 20.3327V20.1574H7.65477C7.88848 20.1574 8.00534 20.1574 8.00534 19.9237V17.8788Z" fill="#004A97"/>
<path d="M13.264 17.9956C13.4393 17.9956 13.4977 17.8788 13.4977 17.8203C13.4977 17.4113 13.264 17.1192 12.855 17.1192C12.3876 17.1192 12.0371 17.4698 11.9786 17.9956H13.264ZM11.9202 18.2293C11.9202 18.2877 11.9202 18.4046 11.9202 18.6967C11.9786 19.3979 12.4461 20.0406 13.0303 20.0406C13.4393 20.0406 13.7899 19.8069 14.082 19.5147L14.1989 19.6316C13.8483 20.099 13.3809 20.508 12.7966 20.508C11.5696 20.508 11.3359 19.3394 11.3359 18.8136C11.3359 17.2945 12.3292 16.8855 12.855 16.8855C13.4977 16.8855 14.1404 17.2945 14.1404 18.1125C14.1404 18.1709 14.1404 18.2293 14.1404 18.2293H14.082H11.9202Z" fill="#004A97"/>
<path d="M14.3151 20.1574H14.5488C14.7825 20.1574 14.8994 20.1574 14.8994 19.9237V17.7619C14.8994 17.5282 14.6072 17.4698 14.4904 17.4113V17.2945C15.0746 17.0608 15.3668 16.8855 15.4252 16.8855C15.4836 16.8855 15.4836 16.8855 15.4836 17.0024V17.7035C15.6589 17.4113 16.0095 16.9439 16.4769 16.9439C16.6522 16.9439 16.8859 17.0608 16.8859 17.3529C16.8859 17.5866 16.769 17.7619 16.5353 17.7619C16.3016 17.7619 16.3016 17.5866 16.0095 17.5866C15.8926 17.5866 15.4252 17.7619 15.4252 18.2293V20.0406C15.4252 20.2743 15.6005 20.2743 15.7758 20.2743H16.1848V20.4496C15.7758 20.4496 15.4252 20.4496 15.1331 20.4496C14.8409 20.4496 14.4904 20.4496 14.1982 20.4496V20.1574H14.3151Z" fill="#004A97"/>
<path d="M17.2936 19.281C17.4105 19.8068 17.7026 20.2158 18.2869 20.2158C18.7543 20.2158 18.9296 19.9237 18.9296 19.69C18.9296 18.8136 17.2352 19.1057 17.2352 17.8203C17.2352 17.4113 17.5857 16.8271 18.4037 16.8271C18.6374 16.8271 18.988 16.8855 19.2801 17.0608L19.3386 17.8203H19.1633C19.1048 17.3529 18.8127 17.0608 18.3453 17.0608C18.0532 17.0608 17.761 17.236 17.761 17.5866C17.761 18.463 19.5138 18.2293 19.5138 19.3979C19.5138 19.9237 19.1049 20.4495 18.17 20.4495C17.8779 20.4495 17.5273 20.3327 17.2352 20.2158L17.1768 19.3394L17.2936 19.281Z" fill="#004A97"/>
<path d="M26.4102 16.3596H26.2349C26.118 15.4832 25.4753 15.1326 24.5989 15.1326C23.7225 15.1326 22.4371 15.7169 22.4371 17.5866C22.4371 19.1057 23.5472 20.2158 24.7158 20.2158C25.4753 20.2158 26.118 19.69 26.2349 18.872L26.4102 18.9304L26.2349 20.0405C25.8843 20.2158 25.0663 20.4495 24.5405 20.4495C22.7293 20.4495 21.6191 19.281 21.6191 17.5866C21.6191 16.009 23.0214 14.8989 24.5405 14.8989C25.1832 14.8989 25.7675 15.0742 26.3517 15.3079L26.4102 16.3596Z" fill="#004A97"/>
<path d="M26.7012 20.1574H26.818C27.0517 20.1574 27.1686 20.1574 27.1686 19.9237V15.6585C27.1686 15.1326 27.0517 15.1326 26.7596 15.0742V14.9574C27.0517 14.8405 27.4023 14.7237 27.5776 14.6068C27.636 14.5484 27.6944 14.5484 27.7529 14.5484C27.8113 14.5484 27.8113 14.6068 27.8113 14.6652V19.9821C27.8113 20.2158 27.9866 20.2158 28.2203 20.2158H28.3371V20.3911C28.1034 20.3911 27.8113 20.3911 27.5192 20.3911C27.227 20.3911 26.9933 20.3911 26.7012 20.3911V20.1574Z" fill="#004A97"/>
<path d="M31.6088 19.9237C31.6088 20.0406 31.6673 20.0406 31.8425 20.0406C31.9594 20.0406 32.0763 20.0406 32.1347 20.0406V20.2159C31.7841 20.2743 31.1998 20.3911 31.0246 20.4496H30.9661V19.8069C30.4987 20.1574 30.1482 20.4496 29.6223 20.4496C29.2133 20.4496 28.8043 20.1574 28.8043 19.5147V17.5282C28.8043 17.3529 28.7459 17.1192 28.3369 17.1192V17.0024C28.629 17.0024 29.2133 16.9439 29.3302 16.9439C29.3886 16.9439 29.3886 17.0024 29.3886 17.1776V19.1642C29.3886 19.3979 29.3886 20.0406 30.0313 20.0406C30.265 20.0406 30.6156 19.8653 30.9661 19.5732V17.5282C30.9661 17.3529 30.6156 17.2945 30.3234 17.2361V17.1192C31.0246 17.0608 31.4336 17.0024 31.492 17.0024C31.5504 17.0024 31.5504 17.0608 31.5504 17.1192V19.9237H31.6088Z" fill="#004A97"/>
<path d="M33.129 19.4563C33.129 19.7484 33.4211 20.2158 33.947 20.2158C34.765 20.2158 35.1155 19.3978 35.1155 18.7551C35.1155 17.9372 34.4728 17.236 33.8886 17.236C33.5964 17.236 33.3627 17.4113 33.1874 17.5866V19.4563H33.129ZM33.129 17.4113C33.4211 17.1776 33.8301 16.8855 34.2975 16.8855C35.174 16.8855 35.6998 17.645 35.6998 18.5214C35.6998 19.5147 34.9402 20.508 33.8886 20.508C33.3043 20.508 33.0122 20.3327 32.8369 20.2158L32.6032 20.3911L32.4279 20.3327C32.4863 19.8653 32.5447 19.4563 32.5447 18.9888V15.7169C32.5447 15.1911 32.4279 15.1911 32.1357 15.1327V15.0158C32.4279 14.8989 32.7784 14.7821 32.9537 14.6652C33.0122 14.6068 33.0706 14.6068 33.129 14.6068C33.1874 14.6068 33.1874 14.6652 33.1874 14.7237V17.4113H33.129Z" fill="#004A97"/>
<path d="M0.0585938 24.7731H0.117021C0.292302 24.7731 0.409157 24.7731 0.409157 24.5394V22.3776C0.409157 22.1439 0.233875 22.1439 0.117021 22.1439H0.0585938V22.0271C0.233875 22.0271 0.467584 22.0271 0.701293 22.0271C0.935001 22.0271 1.16871 22.0271 1.34399 22.0271V22.1439H1.28556C1.11028 22.1439 0.993428 22.1439 0.993428 22.3776V24.5394C0.993428 24.7731 1.11028 24.7731 1.28556 24.7731H1.34399V24.89C1.16871 24.89 0.876574 24.89 0.701293 24.89C0.526011 24.89 0.233875 24.89 0.117021 24.89V24.7731H0.0585938Z" fill="#006AC9"/>
<path d="M1.34399 24.89V24.7731H1.28556C1.11028 24.7731 0.935001 24.7731 0.935001 24.5394V22.3776C0.935001 22.1439 1.11028 22.1439 1.28556 22.1439H1.34399V22.0271C1.16871 22.0271 0.935001 22.0271 0.701293 22.0271C0.526011 22.0271 0.292302 22.0271 0.117021 22.0271V22.1439H0.175448C0.35073 22.1439 0.526011 22.1439 0.526011 22.3776V24.5394C0.526011 24.7731 0.35073 24.7731 0.175448 24.7731H0.117021V24.89C0.292302 24.89 0.526011 24.89 0.701293 24.89C0.876574 24.89 1.11028 24.89 1.34399 24.89ZM1.34399 24.9484C1.16871 24.9484 0.876574 24.9484 0.701293 24.9484C0.526011 24.9484 0.233875 24.9484 0.117021 24.9484V24.7731H0.175448C0.35073 24.7731 0.467584 24.7731 0.467584 24.5394V22.3776C0.467584 22.1439 0.35073 22.1439 0.175448 22.1439H0.0585938V22.0271C0.233875 22.0271 0.467584 22.0271 0.701293 22.0271C0.935001 22.0271 1.16871 22.0271 1.34399 22.0271V22.1439H1.28556C1.11028 22.1439 0.993428 22.1439 0.993428 22.3776V24.5394C0.993428 24.7731 1.11028 24.7731 1.28556 24.7731H1.34399V24.9484Z" fill="#006AC9"/>
<path d="M4.20701 24.072V22.4945C4.20701 22.1439 3.97331 22.0855 3.85645 22.0855H3.7396V21.9686C3.91488 21.9686 4.14859 21.9686 4.32387 21.9686C4.49915 21.9686 4.67443 21.9686 4.84971 21.9686V22.0855H4.79129C4.616 22.0855 4.44072 22.1439 4.44072 22.6113V24.481C4.44072 24.5978 4.44072 24.7731 4.44072 24.89H4.26544L2.10364 22.4945V24.1889C2.10364 24.5394 2.16206 24.6563 2.51263 24.6563H2.57105V24.7731C2.39577 24.7731 2.22049 24.7731 2.04521 24.7731C1.86993 24.7731 1.69465 24.7731 1.46094 24.7731H1.51936C1.8115 24.7731 1.86993 24.5978 1.86993 24.2473V22.4945C1.86993 22.2608 1.69465 22.1439 1.51936 22.1439V22.0271C1.69465 22.0271 1.86993 22.0271 1.98678 22.0271C2.10364 22.0271 2.22049 22.0271 2.33734 22.0271L4.20701 24.072Z" fill="#006AC9"/>
<path d="M4.26544 24.9484H4.3823C4.3823 24.8316 4.3823 24.6563 4.3823 24.5394V22.6698C4.3823 22.1439 4.616 22.1439 4.79129 22.1439H4.84971V22.0271C4.67443 22.0271 4.49915 22.0271 4.3823 22.0271C4.20701 22.0271 4.03173 22.0271 3.79802 22.0271V22.1439H3.85645C3.97331 22.1439 4.26544 22.2024 4.26544 22.5529V24.1304L2.39577 22.0271C2.27892 22.0271 2.16206 22.0271 2.04521 22.0271C1.86993 22.0271 1.75307 22.0271 1.57779 22.0271V22.1439H1.63622C1.8115 22.1439 2.04521 22.3192 2.04521 22.5529V24.3057C2.04521 24.6563 1.92835 24.8316 1.63622 24.8316H1.57779V24.9484C1.75307 24.9484 1.92835 24.9484 2.10364 24.9484C2.27892 24.9484 2.4542 24.9484 2.62948 24.9484V24.8316H2.51263C2.16206 24.8316 2.10364 24.7147 2.10364 24.3057V22.5529L4.26544 24.9484ZM4.44072 25.0069H4.26544L2.16206 22.6698V24.3642C2.16206 24.7147 2.22049 24.8316 2.51263 24.8316H2.62948V24.9484C2.4542 24.9484 2.27892 24.9484 2.10364 24.9484C1.92835 24.9484 1.75307 24.9484 1.51936 24.9484V24.7731H1.57779C1.86993 24.7731 1.92835 24.5979 1.92835 24.2473V22.4945C1.92835 22.2608 1.75307 22.1439 1.57779 22.1439H1.46094V22.0271C1.63622 22.0271 1.8115 22.0271 1.92835 22.0271C2.04521 22.0271 2.16206 22.0271 2.33734 22.0271L4.14859 24.072V22.5529C4.14859 22.2024 3.91488 22.2024 3.79802 22.2024H3.7396V22.0855C3.91488 22.0855 4.14859 22.0855 4.32387 22.0855C4.49915 22.0855 4.67443 22.0855 4.84971 22.0855V22.2024H4.79129C4.616 22.2024 4.44072 22.2024 4.44072 22.7282V24.5979C4.44072 24.7147 4.44072 24.8316 4.44072 25.0069Z" fill="#006AC9"/>
<path d="M5.49264 22.2023C5.20051 22.2023 5.14208 22.2607 5.08365 22.5529H4.9668C4.9668 22.436 5.02522 22.3192 5.02522 22.2023C5.02522 22.0855 5.02522 21.9686 5.02522 21.8517H5.14208C5.20051 21.9686 5.25893 21.9686 5.37579 21.9686H7.53759C7.65445 21.9686 7.7713 21.9686 7.7713 21.8517H7.88815C7.88815 21.9686 7.82973 22.0855 7.82973 22.2023C7.82973 22.3192 7.82973 22.436 7.82973 22.5529L7.71287 22.6113C7.71287 22.436 7.71287 22.2023 7.42074 22.2023H6.71961V24.4225C6.71961 24.7147 6.83647 24.7731 7.07017 24.7731H7.1286V24.89C6.95332 24.89 6.66118 24.89 6.42748 24.89C6.19377 24.89 5.90163 24.89 5.72635 24.89V24.7731H5.78478C6.01849 24.7731 6.13534 24.7731 6.13534 24.4225V22.2023H5.49264Z" fill="#006AC9"/>
<path d="M7.1286 24.9484C6.95332 24.9484 6.66118 24.9484 6.42748 24.9484C6.19377 24.9484 5.90163 24.9484 5.72635 24.9484V24.7731H5.78478C6.01849 24.7731 6.13534 24.7731 6.13534 24.4226V22.2023H5.49264H6.19377V24.4226C6.19377 24.7731 6.07691 24.7731 5.8432 24.7731H5.78478V24.89C5.96006 24.89 6.25219 24.89 6.4859 24.89C6.66118 24.89 6.95332 24.89 7.1286 24.9484V24.8316H7.07017C6.89489 24.8316 6.71961 24.7731 6.71961 24.481V22.2608H7.42074C7.71287 22.2608 7.71287 22.4945 7.7713 22.6698L7.88815 22.6113C7.88815 22.4945 7.88815 22.3776 7.88815 22.2608C7.88815 22.1439 7.88815 22.0271 7.94658 21.9686H7.88815C7.88815 22.0855 7.7713 22.0855 7.65445 22.0855H5.49264C5.37579 22.0855 5.25893 22.0855 5.25893 21.9686H5.08365C5.08365 22.0855 5.08365 22.2023 5.08365 22.3192C5.08365 22.436 5.02522 22.5529 5.02522 22.6698H5.14208C5.20051 22.3776 5.25893 22.2608 5.55107 22.3192C5.25893 22.3192 5.25893 22.3776 5.20051 22.6698H4.9668C4.9668 22.5529 5.02522 22.436 5.02522 22.3192C5.02522 22.2023 5.02522 22.0855 5.02522 21.9686H5.14208C5.14208 22.0855 5.25893 22.0855 5.37579 22.0855H7.53759C7.65445 22.0855 7.71287 22.0855 7.7713 21.9686H7.88815C7.88815 22.0855 7.82973 22.2023 7.82973 22.3192C7.82973 22.436 7.82973 22.5529 7.82973 22.6698H7.65445C7.65445 22.4945 7.65445 22.2608 7.36231 22.2608H6.71961V24.481C6.71961 24.7731 6.83647 24.8316 7.07017 24.8316H7.18703L7.1286 24.9484Z" fill="#006AC9"/>
<path d="M8.00391 24.7731H8.06233C8.23762 24.7731 8.35447 24.7731 8.35447 24.5394V22.3776C8.35447 22.1439 8.17919 22.1439 8.06233 22.1439H8.00391V22.0271C8.23762 22.0271 8.70503 22.0271 9.0556 22.0271C9.40616 22.0271 9.81515 22.0271 10.1073 22.0271C10.1073 22.2024 10.1073 22.4945 10.1073 22.6698H9.99043C9.99043 22.3776 9.932 22.2024 9.46459 22.2024H8.88031V23.3125H9.40616C9.63987 23.3125 9.6983 23.1956 9.75672 22.9619H9.87358C9.87358 23.1372 9.87358 23.3125 9.87358 23.4293C9.87358 23.6046 9.87358 23.7215 9.87358 23.8967H9.75672C9.75672 23.663 9.6983 23.4877 9.40616 23.4877H8.88031V24.481C8.88031 24.7731 9.11402 24.7731 9.40616 24.7731C9.932 24.7731 10.1073 24.7147 10.2826 24.2473H10.3994C10.341 24.481 10.2826 24.7147 10.2826 24.89C9.99043 24.89 9.52301 24.89 9.17245 24.89C8.82189 24.89 8.29604 24.89 8.06233 24.89V24.7731H8.00391Z" fill="#006AC9"/>
<path d="M10.2241 24.89C10.2826 24.6563 10.2826 24.481 10.341 24.2473H10.2826C10.1657 24.7147 9.932 24.7731 9.40616 24.7731C9.17245 24.7731 8.88031 24.7731 8.88031 24.481V23.4877H9.40616C9.69829 23.4877 9.69829 23.663 9.75672 23.8967H9.87357C9.87357 23.7215 9.87357 23.6046 9.87357 23.4293C9.87357 23.254 9.87357 23.1372 9.87357 22.9619H9.75672C9.75672 23.1956 9.63986 23.3125 9.40616 23.3125H8.88031V22.2024H9.46458C9.87357 22.2024 9.99043 22.4361 9.99043 22.6698H10.1073C10.1073 22.5529 10.1073 22.3776 10.1073 22.2608C10.1073 22.2024 10.1073 22.1439 10.1073 22.0855C9.81515 22.0855 9.40616 22.0855 9.05559 22.0855C8.70503 22.0855 8.29604 22.0855 8.06233 22.0855V22.2024H8.12076C8.29604 22.2024 8.47132 22.2024 8.47132 22.4361V24.5979C8.47132 24.8316 8.29604 24.8316 8.12076 24.8316H8.06233V24.9484C8.29604 24.9484 8.76346 24.9484 9.17245 24.9484C9.46458 24.89 9.932 24.89 10.2241 24.89ZM10.2241 24.9484C9.932 24.9484 9.46458 24.9484 9.11402 24.9484C8.76346 24.9484 8.23761 24.9484 8.00391 24.9484V24.7731H8.06233C8.23761 24.7731 8.35447 24.7731 8.35447 24.5394V22.3776C8.35447 22.2024 8.23761 22.1439 8.06233 22.1439H8.00391V22.0271C8.23761 22.0271 8.70503 22.0271 9.05559 22.0271C9.40616 22.0271 9.81515 22.0271 10.1073 22.0271C10.1073 22.0855 10.1073 22.1439 10.1073 22.2608C10.1073 22.3776 10.1073 22.5529 10.1073 22.6698L9.99043 22.7282C9.99043 22.4361 9.932 22.2608 9.52301 22.2608H8.93874V23.3125H9.40616C9.63986 23.3125 9.69829 23.1956 9.69829 22.9619H9.81515C9.81515 23.1372 9.81515 23.3125 9.81515 23.4293C9.81515 23.6046 9.81515 23.7215 9.81515 23.8967H9.69829C9.69829 23.663 9.63986 23.4877 9.40616 23.4877H8.93874V24.4226C8.93874 24.6563 9.17245 24.6563 9.40616 24.6563C9.932 24.6563 10.1073 24.6563 10.2241 24.1889L10.341 24.2473C10.341 24.481 10.2826 24.7147 10.2241 24.9484Z" fill="#006AC9"/>
<path d="M11.4514 23.4293H11.6267C12.0357 23.4293 12.2694 23.254 12.2694 22.7866C12.2694 22.4361 12.0357 22.2024 11.6851 22.2024C11.5683 22.2024 11.5099 22.2024 11.4514 22.2024V23.4293ZM10.9256 22.4361C10.9256 22.1439 10.7503 22.1439 10.6335 22.1439H10.575V22.0271C10.6919 22.0271 10.984 22.0271 11.2177 22.0271C11.4514 22.0271 11.6851 22.0271 11.8604 22.0271C12.3863 22.0271 12.8537 22.1439 12.8537 22.7866C12.8537 23.1372 12.62 23.3709 12.2694 23.5462L12.9705 24.5979C13.0874 24.7731 13.1458 24.8316 13.3795 24.8316V24.9484C13.2627 24.9484 13.0874 24.9484 12.9705 24.9484C12.8537 24.9484 12.6784 24.9484 12.5616 24.9484C12.2694 24.5394 11.9773 24.072 11.6851 23.6046H11.393V24.481C11.393 24.7731 11.5683 24.8316 11.7436 24.8316H11.802V24.9484C11.5683 24.9484 11.3346 24.9484 11.1009 24.9484C10.9256 24.9484 10.6919 24.9484 10.5166 24.9484V24.7731H10.575C10.7503 24.7731 10.8672 24.7147 10.8672 24.5394V22.4361H10.9256Z" fill="#006AC9"/>
<path d="M11.6863 23.4293C12.0953 23.4293 12.329 23.3125 12.329 22.7866C12.329 22.4361 12.0953 22.2024 11.7447 22.2024C11.6279 22.2024 11.5694 22.2024 11.511 22.2024V23.4293H11.6863ZM11.4526 23.4293V22.1439C11.511 22.1439 11.5694 22.1439 11.6863 22.1439C12.0369 22.1439 12.329 22.3776 12.329 22.7866C12.329 23.3125 12.0953 23.4293 11.6863 23.4293H11.4526ZM11.4526 23.5462H11.7447C12.0369 24.0136 12.2706 24.481 12.6211 24.89C12.738 24.89 12.8548 24.89 13.0301 24.89C13.147 24.89 13.3222 24.89 13.4391 24.89V24.7731C13.2638 24.7731 13.147 24.7147 13.0301 24.5394L12.329 23.4293C12.6795 23.3125 12.9133 23.0788 12.9133 22.7282C12.9133 22.1439 12.4458 22.0271 11.92 22.0271C11.6863 22.0271 11.511 22.0271 11.2773 22.0271C11.0436 22.0271 10.8099 22.0271 10.6346 22.0271V22.1439H10.693C10.8099 22.1439 10.9852 22.1439 10.9852 22.4945V24.5979C10.9852 24.7731 10.8099 24.8316 10.693 24.8316H10.5762V24.9484C10.7515 24.9484 10.9852 24.9484 11.1604 24.9484C11.3942 24.9484 11.6279 24.9484 11.8616 24.9484V24.8316H11.8031C11.6279 24.8316 11.4526 24.8316 11.4526 24.481V23.5462ZM13.4391 24.9484C13.3222 24.9484 13.147 24.9484 13.0301 24.9484C12.9133 24.9484 12.7964 24.9484 12.6211 24.9484C12.329 24.5394 12.0369 24.072 11.7447 23.6046H11.511V24.481C11.511 24.7731 11.6279 24.7731 11.8616 24.7731H11.9784V24.89C11.7447 24.89 11.511 24.89 11.2773 24.89C11.102 24.89 10.8683 24.89 10.693 24.89V24.7731H10.7515C10.9267 24.7731 11.0436 24.7147 11.0436 24.5394V22.4361C11.0436 22.1439 10.8683 22.1439 10.7515 22.1439H10.5762V22.0271C10.693 22.0271 10.9852 22.0271 11.2189 22.0271C11.4526 22.0271 11.6863 22.0271 11.8616 22.0271C12.3874 22.0271 12.8548 22.2024 12.8548 22.7866C12.8548 23.1372 12.6211 23.3709 12.2706 23.5462L12.9717 24.5979C13.0885 24.7731 13.147 24.8316 13.3807 24.8316L13.4391 24.9484Z" fill="#006AC9"/>
<path d="M16.2431 24.072V22.4945C16.2431 22.1439 16.0094 22.0855 15.8926 22.0855H15.7757V21.9686C15.951 21.9686 16.1847 21.9686 16.36 21.9686C16.5353 21.9686 16.7106 21.9686 16.8858 21.9686V22.0855H16.8274C16.6521 22.0855 16.4769 22.1439 16.4769 22.6113V24.481C16.4769 24.5978 16.4769 24.7731 16.4769 24.89H16.3016L14.1398 22.4945V24.1889C14.1398 24.5394 14.1982 24.6563 14.5488 24.6563H14.6656V24.7731C14.4903 24.7731 14.3151 24.7731 14.1398 24.7731C13.9645 24.7731 13.7892 24.7731 13.5555 24.7731H13.6139C13.9061 24.7731 13.9645 24.5978 13.9645 24.2473V22.4945C13.9645 22.2608 13.7892 22.1439 13.5555 22.1439H13.4971V22.0271C13.6724 22.0271 13.7892 22.0271 13.9645 22.0271C14.0813 22.0271 14.1982 22.0271 14.3151 22.0271L16.2431 24.072Z" fill="#006AC9"/>
<path d="M16.3016 24.9484H16.4184C16.4184 24.8316 16.4184 24.6563 16.4184 24.5394V22.6698C16.4184 22.1439 16.6521 22.1439 16.8274 22.1439H16.8858V22.0271C16.7106 22.0271 16.5353 22.0271 16.4184 22.0271C16.2431 22.0271 16.0679 22.0271 15.8342 22.0271V22.1439H15.8926C16.0094 22.1439 16.3016 22.2024 16.3016 22.5529V24.1304L14.4319 22.0271C14.3151 22.0271 14.1982 22.0271 14.0813 22.0271C13.9061 22.0271 13.7892 22.0271 13.6139 22.0271V22.1439H13.6724C13.8476 22.1439 14.0813 22.3192 14.0813 22.5529V24.3057C14.0813 24.6563 13.9645 24.8316 13.6724 24.8316H13.6139V24.9484C13.7892 24.9484 13.9645 24.9484 14.1398 24.9484C14.3151 24.9484 14.4903 24.9484 14.6656 24.9484V24.8316H14.6072C14.2566 24.8316 14.1982 24.7147 14.1982 24.3057V22.5529L16.3016 24.9484ZM16.4769 25.0069H16.3016L14.1982 22.6698V24.3642C14.1982 24.7147 14.2566 24.8316 14.5488 24.8316H14.6656V24.9484C14.4903 24.9484 14.3151 24.9484 14.1398 24.9484C13.9645 24.9484 13.7892 24.9484 13.5555 24.9484V24.7731H13.6139C13.9061 24.7731 13.9645 24.5979 13.9645 24.2473V22.4945C13.9645 22.2608 13.7892 22.1439 13.6139 22.1439H13.4971V22.0271C13.6724 22.0271 13.8476 22.0271 13.9645 22.0271C14.0813 22.0271 14.1982 22.0271 14.3735 22.0271L16.1847 24.072V22.5529C16.1847 22.2024 15.951 22.2024 15.8342 22.2024H15.7173V22.0855C15.8926 22.0855 16.1263 22.0855 16.3016 22.0855C16.4769 22.0855 16.6521 22.0855 16.8274 22.0855V22.2024H16.769C16.5937 22.2024 16.4184 22.2024 16.4184 22.7282V24.5979C16.4769 24.7147 16.4769 24.8316 16.4769 25.0069Z" fill="#006AC9"/>
<path d="M18.171 22.4944L17.762 23.663H18.5215L18.171 22.4944ZM17.5867 24.3057C17.5283 24.4225 17.4698 24.5394 17.4698 24.6562C17.4698 24.7731 17.6451 24.7731 17.762 24.7731H17.8204V24.89C17.6451 24.89 17.4698 24.89 17.2946 24.89C17.1193 24.89 17.0024 24.89 16.8271 24.89V24.7731C17.0024 24.7731 17.1193 24.6562 17.1777 24.481L17.8204 22.5529C17.8788 22.3776 17.9373 22.2023 17.9957 22.027C18.1125 21.9686 18.2878 21.9102 18.4047 21.8517C18.4047 21.8517 18.4047 21.8517 18.4631 21.8517C18.4631 21.9102 18.4631 21.9102 18.5215 21.9686L19.3395 24.1888C19.3979 24.3057 19.4564 24.481 19.5148 24.5978C19.5732 24.7147 19.6317 24.7731 19.8069 24.7731V24.89C19.6317 24.89 19.4564 24.89 19.2227 24.89C18.989 24.89 18.8137 24.89 18.58 24.89V24.7731H18.6384C18.7552 24.7731 18.8721 24.7731 18.8721 24.6562C18.8721 24.5978 18.8137 24.481 18.8137 24.3641L18.6384 23.8967H17.7036L17.5867 24.3057Z" fill="#006AC9"/>
<path d="M17.8204 23.663H18.58L18.171 22.4945L17.8204 23.663ZM17.762 23.663L18.171 22.436L18.58 23.663H17.762ZM18.58 24.89C18.8137 24.89 18.989 24.89 19.1642 24.89C19.3395 24.89 19.5148 24.89 19.7485 24.89V24.7731C19.6317 24.7731 19.5148 24.7147 19.4564 24.5978C19.3979 24.5394 19.3395 24.3641 19.3395 24.1888L18.58 22.027C18.58 21.9686 18.58 21.9686 18.5215 21.9102C18.4631 21.9686 18.2878 22.027 18.171 22.0855C18.171 22.2608 18.0541 22.436 17.9957 22.6113L17.353 24.5394C17.2946 24.7147 17.1193 24.8315 16.944 24.8315V24.9484C17.0609 24.9484 17.2361 24.9484 17.353 24.9484C17.5283 24.9484 17.7036 24.9484 17.8204 24.9484V24.8315C17.7036 24.8315 17.4698 24.8315 17.4698 24.6563C17.4698 24.5978 17.5283 24.481 17.5867 24.3057L17.7036 23.8383H18.6968L18.8721 24.3057C18.9305 24.4226 18.9305 24.5394 18.9305 24.5978C18.9305 24.7147 18.7552 24.7147 18.6384 24.7147V24.89H18.58ZM19.8069 24.9484C19.6317 24.9484 19.4564 24.9484 19.2227 24.9484C18.989 24.9484 18.8137 24.9484 18.58 24.9484V24.7731H18.6384C18.7552 24.7731 18.8721 24.7731 18.8721 24.6563C18.8721 24.5978 18.8137 24.481 18.8137 24.3641L18.6384 23.8967H17.7036L17.5867 24.3057C17.5283 24.4226 17.4698 24.5394 17.4698 24.5978C17.4698 24.7147 17.6451 24.7147 17.762 24.7147H17.8204V24.8315C17.6451 24.8315 17.4698 24.8315 17.2946 24.8315C17.1193 24.8315 17.0024 24.8315 16.8271 24.8315V24.7731C17.0024 24.7731 17.1193 24.6563 17.1777 24.5394L17.8204 22.6113C17.8788 22.436 17.9373 22.2608 17.9957 22.0855C18.1125 22.027 18.2878 21.9686 18.3463 21.9102C18.3463 21.9102 18.3463 21.9102 18.4047 21.9102H18.4631C18.4631 21.9686 18.4631 21.9686 18.5215 22.027L19.3395 24.1888C19.3979 24.3641 19.4564 24.481 19.5148 24.5978C19.5732 24.7147 19.6317 24.7731 19.7485 24.7731H19.8069V24.9484Z" fill="#006AC9"/>
<path d="M19.9819 22.2023C19.6898 22.2023 19.6313 22.2607 19.5729 22.5529H19.4561C19.4561 22.436 19.5145 22.3192 19.5145 22.2023C19.5145 22.0855 19.5145 21.9686 19.5145 21.8517H19.6313C19.6898 21.9686 19.7482 21.9686 19.865 21.9686H22.0269C22.1437 21.9686 22.2606 21.9686 22.2606 21.8517H22.3774C22.3774 21.9686 22.319 22.0855 22.319 22.2023C22.319 22.3192 22.319 22.436 22.319 22.5529L22.2021 22.6113C22.2021 22.436 22.1437 22.2023 21.91 22.2023H21.2089V24.4225C21.2089 24.7147 21.3257 24.7731 21.5594 24.7731H21.6179V24.89C21.4426 24.89 21.1504 24.89 20.9167 24.89C20.683 24.89 20.3909 24.89 20.2156 24.89V24.7731H20.274C20.5077 24.7731 20.6246 24.7731 20.6246 24.4225V22.2023H19.9819Z" fill="#006AC9"/>
<path d="M21.6184 24.9484C21.4431 24.9484 21.1509 24.9484 20.9172 24.9484C20.6835 24.9484 20.3914 24.9484 20.2161 24.9484V24.7731H20.2745C20.5082 24.7731 20.5667 24.7731 20.6251 24.4226V22.2023H19.9824H20.6835V24.4226C20.6835 24.7731 20.5667 24.7731 20.333 24.7731H20.2745V24.89C20.4498 24.89 20.742 24.89 20.9757 24.89C21.1509 24.89 21.4431 24.89 21.6184 24.9484V24.8316H21.5599C21.3847 24.8316 21.2094 24.7731 21.2094 24.481V22.2608H21.9105C22.2026 22.2608 22.2026 22.4945 22.2611 22.6698L22.3779 22.6113C22.3779 22.4945 22.3779 22.3776 22.3779 22.2608C22.3779 22.1439 22.3779 22.0271 22.4363 21.9686H22.3779C22.3779 22.0855 22.2611 22.0855 22.1442 22.0855H19.9824C19.8655 22.0855 19.8071 22.0855 19.7487 21.9686H19.6903C19.6903 22.0855 19.6903 22.2023 19.6903 22.3192C19.6903 22.436 19.6318 22.5529 19.6318 22.6698H19.7487C19.8071 22.3776 19.8655 22.2608 20.1577 22.3192C19.8655 22.3192 19.8655 22.3776 19.8071 22.6698H19.6318C19.6318 22.5529 19.6903 22.436 19.6903 22.3192C19.6903 22.2023 19.6903 22.0855 19.6903 21.9686H19.8071C19.8071 22.0855 19.924 22.0855 20.0408 22.0855H22.2026C22.3195 22.0855 22.3779 22.0855 22.4363 21.9686H22.5532C22.5532 22.0855 22.4948 22.2023 22.4948 22.3192C22.4948 22.436 22.4948 22.5529 22.4948 22.6698L22.3195 22.7282C22.3195 22.5529 22.3195 22.3192 22.0274 22.3192H21.3847V24.5394C21.3847 24.8316 21.5015 24.89 21.7352 24.89H21.8521L21.6184 24.9484Z" fill="#006AC9"/>
<path d="M22.4941 24.7731C22.7278 24.7731 22.8447 24.7731 22.8447 24.5394V22.3776C22.8447 22.1439 22.6694 22.1439 22.5526 22.1439H22.4941V22.0271C22.6694 22.0271 22.9031 22.0271 23.1368 22.0271C23.3705 22.0271 23.6043 22.0271 23.7795 22.0271V22.1439H23.7211C23.5458 22.1439 23.429 22.1439 23.429 22.3776V24.5394C23.429 24.7731 23.6043 24.7731 23.7211 24.7731H23.7795V24.89C23.6043 24.89 23.3121 24.89 23.1368 24.89C22.9616 24.89 22.6694 24.89 22.5526 24.89V24.7731H22.4941Z" fill="#006AC9"/>
<path d="M23.7797 24.89V24.7731H23.7213C23.546 24.7731 23.3707 24.7731 23.3707 24.5394V22.3776C23.3707 22.1439 23.546 22.1439 23.7213 22.1439H23.7797V22.0271C23.6044 22.0271 23.3707 22.0271 23.137 22.0271C22.9617 22.0271 22.728 22.0271 22.5527 22.0271V22.1439H22.6112C22.7864 22.1439 22.9617 22.1439 22.9617 22.3776V24.5394C22.9617 24.7731 22.7864 24.7731 22.6112 24.7731H22.5527V24.89C22.728 24.89 22.9617 24.89 23.137 24.89C23.3123 24.89 23.546 24.89 23.7797 24.89ZM23.7797 24.9484C23.6044 24.9484 23.3123 24.9484 23.137 24.9484C22.9617 24.9484 22.6696 24.9484 22.5527 24.9484V24.7731H22.6112C22.7864 24.7731 22.9033 24.7731 22.9033 24.5394V22.3776C22.9033 22.2024 22.7864 22.1439 22.6112 22.1439H22.5527V22.0271C22.728 22.0271 22.9617 22.0271 23.1954 22.0271C23.4291 22.0271 23.6629 22.0271 23.8381 22.0271V22.1439H23.7797C23.6044 22.1439 23.4876 22.1439 23.4876 22.3776V24.5394C23.4876 24.7147 23.6044 24.7731 23.7797 24.7731H23.8381L23.7797 24.9484Z" fill="#006AC9"/>
<path d="M25.5324 24.7731C26.3504 24.7731 26.4673 24.072 26.4673 23.4293C26.4673 22.845 26.1167 22.0855 25.474 22.0855C24.7145 22.0855 24.5392 22.7282 24.5392 23.3125C24.4808 24.072 24.8313 24.7731 25.5324 24.7731ZM25.474 21.9686C26.3504 21.9686 27.0516 22.4945 27.0516 23.4293C27.0516 24.3641 26.3504 25.0068 25.474 25.0068C24.5976 25.0068 23.8965 24.4226 23.8965 23.4877C23.8965 22.6113 24.5976 21.9686 25.474 21.9686Z" fill="#006AC9"/>
<path d="M24.4808 23.3124C24.4808 22.7282 24.7145 22.0855 25.474 22.0855C26.1751 22.0855 26.5257 22.845 26.5257 23.4293C26.5257 24.0136 26.4089 24.7731 25.5324 24.7731C26.3504 24.7731 26.4673 24.072 26.4673 23.4877C26.4673 22.9034 26.1167 22.1439 25.474 22.1439C24.7145 22.1439 24.5392 22.7866 24.4808 23.3124C24.5392 24.072 24.8313 24.7731 25.5324 24.7731C24.8313 24.8315 24.4808 24.072 24.4808 23.3124ZM23.8965 23.4877C23.8965 22.6113 24.5976 21.9102 25.474 21.9102C24.5976 21.9686 23.9549 22.6113 23.8965 23.4877C23.9549 24.3641 24.5976 24.9484 25.474 24.9484C26.3504 24.9484 27.0515 24.3057 27.0515 23.3709C27.0515 22.4945 26.3504 21.9686 25.474 21.9686C26.3504 21.9686 27.11 22.5529 27.11 23.4293C27.11 24.4226 26.4089 25.0653 25.5324 25.0653C24.5976 25.0068 23.8965 24.4226 23.8965 23.4877Z" fill="#006AC9"/>
<path d="M29.8574 24.072V22.4945C29.8574 22.1439 29.6237 22.0855 29.5068 22.0855H29.39V21.9686C29.5653 21.9686 29.799 21.9686 29.9743 21.9686C30.1495 21.9686 30.3248 21.9686 30.5001 21.9686V22.0855H30.4417C30.2664 22.0855 30.0911 22.1439 30.0911 22.6113V24.481C30.0911 24.5978 30.0911 24.7731 30.0911 24.89H29.9158L27.754 22.4945V24.1889C27.754 24.5394 27.8125 24.6563 28.163 24.6563H28.2214V24.7731C28.0462 24.7731 27.8709 24.7731 27.6956 24.7731C27.5203 24.7731 27.345 24.7731 27.1113 24.7731H27.1698C27.4619 24.7731 27.5203 24.5978 27.5203 24.2473V22.4945C27.5203 22.2608 27.345 22.1439 27.1698 22.1439H27.1113V22.0271C27.2866 22.0271 27.4035 22.0271 27.5787 22.0271C27.6956 22.0271 27.8125 22.0271 27.9293 22.0271L29.8574 24.072Z" fill="#006AC9"/>
<path d="M29.915 24.9484H30.0319C30.0319 24.8316 30.0319 24.6563 30.0319 24.5394V22.6698C30.0319 22.1439 30.2656 22.1439 30.4409 22.1439H30.4993V22.0271C30.324 22.0271 30.1487 22.0271 30.0319 22.0271C29.8566 22.0271 29.6813 22.0271 29.4476 22.0271V22.1439H29.506C29.6229 22.1439 29.915 22.2024 29.915 22.5529V24.1304L28.0454 22.0271C27.9285 22.0271 27.8116 22.0271 27.6948 22.0271C27.5195 22.0271 27.4027 22.0271 27.2274 22.0271V22.1439H27.2858C27.4611 22.1439 27.6948 22.3192 27.6948 22.5529V24.3057C27.6948 24.6563 27.5779 24.8316 27.2858 24.8316H27.2274V24.9484C27.4027 24.9484 27.5779 24.9484 27.7532 24.9484C27.9285 24.9484 28.1038 24.9484 28.2791 24.9484V24.8316H28.2206C27.8701 24.8316 27.8116 24.7147 27.8116 24.3057V22.5529L29.915 24.9484ZM30.0903 25.0069H29.915L27.8116 22.6698V24.3642C27.8116 24.7147 27.8701 24.8316 28.1622 24.8316H28.2791V24.9484C28.1038 24.9484 27.9285 24.9484 27.7532 24.9484C27.5779 24.9484 27.4027 24.9484 27.1689 24.9484V24.7731H27.2274C27.5195 24.7731 27.5779 24.5979 27.5779 24.2473V22.4945C27.5779 22.2608 27.4027 22.1439 27.2274 22.1439H27.1689V22.0271C27.3442 22.0271 27.5195 22.0271 27.6364 22.0271C27.7532 22.0271 27.8701 22.0271 28.0454 22.0271L29.8566 24.072V22.5529C29.8566 22.2024 29.6229 22.2024 29.506 22.2024H29.3892V22.0855C29.5645 22.0855 29.7982 22.0855 29.9734 22.0855C30.1487 22.0855 30.324 22.0855 30.4993 22.0855V22.2024H30.4409C30.2656 22.2024 30.0903 22.2024 30.0903 22.7282V24.5979C30.0903 24.7147 30.0903 24.8316 30.0903 25.0069Z" fill="#006AC9"/>
<path d="M31.7843 22.4944L31.3753 23.663H32.1932L31.7843 22.4944ZM31.2 24.3057C31.1416 24.4225 31.0831 24.5394 31.0831 24.6562C31.0831 24.7731 31.2584 24.7731 31.3753 24.7731H31.4337V24.89C31.2584 24.89 31.0831 24.89 30.9078 24.89C30.7326 24.89 30.6157 24.89 30.4404 24.89V24.7731C30.6157 24.7731 30.7326 24.6562 30.791 24.481L31.4337 22.5529C31.4921 22.3776 31.5505 22.2023 31.609 22.027C31.7258 21.9686 31.9011 21.9102 32.018 21.8517C32.018 21.8517 32.018 21.8517 32.0764 21.8517C32.0764 21.9102 32.0764 21.9102 32.1348 21.9686L32.8944 24.1304C32.9528 24.2473 33.0112 24.4225 33.0697 24.5394C33.1281 24.7731 33.2449 24.7731 33.3618 24.7731V24.89C33.1865 24.89 33.0112 24.89 32.7775 24.89C32.6022 24.89 32.3685 24.89 32.1348 24.89V24.7731H32.1932C32.3101 24.7731 32.427 24.7731 32.427 24.6562C32.427 24.5978 32.3685 24.481 32.3685 24.3641L32.1932 23.8967H31.2584L31.2 24.3057Z" fill="#006AC9"/>
<path d="M31.4337 23.663H32.1348L31.7843 22.5529L31.4337 23.663ZM31.3753 23.663L31.7843 22.436L32.1932 23.663H31.3753ZM32.1932 24.89C32.427 24.89 32.6022 24.89 32.7775 24.89C32.9528 24.89 33.1281 24.89 33.3618 24.89V24.7731C33.2449 24.7731 33.1281 24.7147 33.0697 24.5978C33.0112 24.481 32.9528 24.3057 32.8944 24.1888L32.1348 22.027C32.1348 21.9686 32.1348 21.9686 32.0764 21.9102C32.018 21.9686 31.8427 22.027 31.7258 22.0855C31.7258 22.2608 31.609 22.436 31.5505 22.6113L30.9078 24.5394C30.8494 24.7147 30.6741 24.8315 30.5573 24.8315V24.9484C30.6741 24.9484 30.8494 24.9484 30.9663 24.9484C31.1416 24.9484 31.3168 24.9484 31.4337 24.9484V24.8315C31.3168 24.8315 31.0831 24.8315 31.0831 24.6563C31.0831 24.5978 31.1416 24.481 31.2 24.3057L31.3168 23.8383H32.3101L32.4854 24.3057C32.5438 24.4226 32.5438 24.5394 32.5438 24.5978C32.5438 24.7147 32.3685 24.7147 32.2517 24.7147V24.89H32.1932ZM33.4202 24.9484C33.2449 24.9484 33.0697 24.9484 32.8359 24.9484C32.6607 24.9484 32.427 24.9484 32.1932 24.9484V24.7731H32.2517C32.3685 24.7731 32.4854 24.7731 32.4854 24.6563C32.4854 24.5978 32.427 24.481 32.427 24.3641L32.2517 23.8967H31.3168L31.2 24.3057C31.1416 24.4226 31.0831 24.5394 31.0831 24.5978C31.0831 24.7147 31.2584 24.7147 31.3753 24.7147H31.4337V24.8315C31.2584 24.8315 31.0831 24.8315 30.9078 24.8315C30.7326 24.8315 30.6157 24.8315 30.4404 24.8315V24.7731C30.6157 24.7731 30.7326 24.6563 30.791 24.5394L31.4337 22.6113C31.4921 22.436 31.5505 22.2608 31.609 22.0855C31.7258 22.027 31.9011 21.9686 32.018 21.9102C32.018 21.9102 32.018 21.9102 32.0764 21.9102H32.1348C32.1348 21.9686 32.1348 21.9686 32.1932 22.027L32.9528 24.1888C33.0112 24.3641 33.0697 24.481 33.1281 24.5978C33.1865 24.7147 33.2449 24.7731 33.3618 24.7731H33.4202V24.9484Z" fill="#006AC9"/>
<path d="M34.4718 24.5394C34.4718 24.7147 34.5886 24.7731 34.7055 24.7731C34.8808 24.7731 35.0561 24.7731 35.2313 24.7731C35.4066 24.7731 35.5819 24.6563 35.6403 24.5394C35.6987 24.4226 35.7572 24.3057 35.7572 24.2473H35.874C35.8156 24.481 35.7572 24.7147 35.6987 24.9484C35.3482 24.9484 34.9392 24.9484 34.5886 24.9484C34.2381 24.9484 33.8291 24.9484 33.4785 24.9484V24.7731H33.5369C33.7122 24.7731 33.8291 24.7731 33.8291 24.481V22.3192C33.8291 22.0855 33.6538 22.0855 33.5369 22.0855H33.4785V21.9686C33.7122 21.9686 33.8875 21.9686 34.1212 21.9686C34.3549 21.9686 34.5302 21.9686 34.7639 21.9686V22.0855H34.6471C34.4718 22.0855 34.3549 22.0855 34.3549 22.3192V24.5394H34.4718Z" fill="#006AC9"/>
<path d="M35.6989 24.89C35.7573 24.6563 35.8158 24.4226 35.8742 24.2473H35.8158C35.8158 24.3642 35.7573 24.4226 35.6989 24.5394C35.6405 24.6563 35.4652 24.7731 35.2899 24.7731C35.1731 24.7731 35.0562 24.7731 34.9978 24.7731C34.9394 24.7731 34.8225 24.7731 34.7641 24.7731C34.6472 24.7731 34.4719 24.7147 34.4719 24.5394V22.3776C34.4719 22.1439 34.5888 22.1439 34.7641 22.1439H34.8225V22.0271C34.5888 22.0271 34.4135 22.0271 34.1798 22.0271C33.9461 22.0271 33.7708 22.0271 33.5371 22.0271V22.1439H33.5955C33.7708 22.1439 33.9461 22.1439 33.9461 22.3776V24.5394C33.9461 24.8316 33.7708 24.8316 33.5955 24.8316H33.5371V24.9484C33.8877 24.9484 34.2382 24.9484 34.6472 24.9484C34.9978 24.89 35.3483 24.89 35.6989 24.89ZM35.7573 24.9484C35.4068 24.9484 34.9978 24.9484 34.6472 24.9484C34.2967 24.9484 33.8877 24.9484 33.5371 24.9484V24.7731H33.5955C33.7708 24.7731 33.8877 24.7731 33.8877 24.5394V22.3776C33.8877 22.2024 33.7708 22.1439 33.5955 22.1439H33.5371V22.0271C33.7708 22.0271 34.0045 22.0271 34.1798 22.0271C34.4135 22.0271 34.5888 22.0271 34.8225 22.0271V22.1439H34.7057C34.5304 22.1439 34.4135 22.1439 34.4135 22.3776V24.5394C34.4135 24.7147 34.5304 24.7147 34.6472 24.7731C34.7057 24.7731 34.8225 24.7731 34.8809 24.7731C34.9978 24.7731 35.1146 24.7731 35.1731 24.7731C35.3484 24.7731 35.4652 24.6563 35.5821 24.5394C35.6405 24.4226 35.6989 24.3642 35.6989 24.2473H35.8158C35.8742 24.481 35.8158 24.7147 35.7573 24.9484Z" fill="#006AC9"/>
<path d="M35.7576 22.3192C35.8745 22.3192 35.8745 22.2607 35.8745 22.2023C35.8745 22.1439 35.8161 22.0855 35.8161 22.0855H35.7576V22.3192ZM35.6408 22.5529C35.6992 22.5529 35.6992 22.5529 35.6992 22.4945V22.1439C35.6992 22.0855 35.6992 22.0855 35.6408 22.0855H35.8745C35.9329 22.0855 36.0498 22.1439 36.0498 22.2023C36.0498 22.2607 35.9913 22.3192 35.9329 22.3192L35.9913 22.436C36.0498 22.4945 36.0498 22.5529 36.1082 22.5529H36.0498C35.9913 22.5529 35.9913 22.4945 35.8745 22.3776H35.8161V22.4945C35.8161 22.5529 35.8161 22.4945 35.8745 22.5529H35.6408ZM35.8161 22.6697C35.9913 22.6697 36.1666 22.4945 36.1666 22.3192C36.1666 22.1439 35.9913 21.9686 35.8161 21.9686C35.6408 21.9686 35.4655 22.1439 35.4655 22.3192C35.5239 22.4945 35.6408 22.6697 35.8161 22.6697ZM35.8161 21.9102C36.0498 21.9102 36.2835 22.0855 36.2835 22.3776C36.2835 22.6697 36.1082 22.7866 35.8161 22.7866C35.5239 22.7866 35.3486 22.6113 35.3486 22.3776C35.3486 22.1439 35.5823 21.9102 35.8161 21.9102Z" fill="#006AC9"/>
<path d="M25.9409 6.13485C25.9409 4.26518 25.1814 2.57079 23.896 1.22697C22.669 0.467417 21.2083 0 19.6892 0H16.3005C12.269 0 8.99707 2.97979 8.99707 7.3034C8.99707 9.11464 9.6982 10.7506 10.8083 12.036C11.9769 12.854 13.3791 13.4382 14.8982 13.672C11.9184 13.0293 9.6982 10.4 9.6982 7.18654C9.6982 3.50563 12.678 0.525844 16.3005 0.525844C19.9814 0.525844 22.9612 3.50563 22.9612 7.18654C22.9612 10.809 20.0982 13.7304 16.4757 13.7888C16.5926 13.7888 16.651 13.7888 16.7679 13.7888C21.7926 13.8472 25.9409 10.4 25.9409 6.13485Z" fill="#004A97"/>
<path d="M16.2419 0C12.2104 0 8.93848 2.97978 8.93848 7.30339C8.93848 9.05621 9.58117 10.6922 10.6913 11.9191C10.7497 11.9776 10.8081 12.036 10.8666 12.0944C12.0351 12.9124 13.3789 13.4382 14.898 13.7304C11.9183 13.0877 9.69803 10.4585 9.69803 7.24496C9.69803 3.56405 12.6778 0.584271 16.3003 0.584271C19.9812 0.584271 22.961 3.56405 22.961 7.24496C22.961 10.8674 20.0981 13.7888 16.4756 13.8472C16.5924 13.8472 16.6509 13.8472 16.7677 13.8472C17.0598 13.8472 17.352 13.8472 17.6441 13.7888C21.5003 12.854 23.9543 8.93935 23.2531 4.79102C22.9026 2.86293 21.9677 1.22697 20.6239 0.0584268C20.3318 -3.35193e-07 20.0396 0 19.7475 0H16.2419Z" fill="#006AC9"/>
</svg>