<svg xmlns="http://www.w3.org/2000/svg" width="34" height="18" viewBox="0 0 34 18" fill="none">
<path d="M33.8638 9.00138C33.549 9.06459 33.2342 9.112 32.9352 9.17522C32.2584 9.31745 31.5974 9.44388 30.9206 9.58611C30.8891 9.58611 30.8577 9.58611 30.8104 9.60191C30.5586 8.52727 29.9763 7.67388 29.0162 7.12075C28.0561 6.56763 27.0489 6.48861 25.9944 6.80468C25.6638 5.82486 25.3491 4.84504 25.0186 3.84941C25.0658 3.83361 25.113 3.802 25.1602 3.802C28.8116 2.67995 32.5732 4.73442 33.7064 8.30602C33.7693 8.49566 33.8008 8.70111 33.848 8.89075C33.848 8.90656 33.8638 8.92236 33.8795 8.92236C33.8638 8.96977 33.8638 8.98557 33.8638 9.00138Z" fill="#FBC707"/>
<path d="M33.8629 11.7987C33.8472 11.8777 33.8157 11.9567 33.8 12.0358C33.1861 14.3273 31.7696 15.9234 29.582 16.7926C28.134 17.3616 26.6545 17.3774 25.1751 16.9349C25.1436 16.9191 25.0964 16.9191 25.0649 16.9032C25.0492 16.9032 25.0334 16.8874 25.002 16.8716C25.3325 15.8918 25.663 14.912 25.9935 13.9164C27.048 14.2324 28.071 14.1534 29.0154 13.6003C29.9754 13.0472 30.5578 12.2096 30.8096 11.1349C30.9827 11.1666 31.1558 11.1982 31.3132 11.2298C32.1316 11.4036 32.9343 11.5616 33.7527 11.7355C33.7842 11.7355 33.8314 11.7513 33.8629 11.7671C33.8629 11.7671 33.8629 11.7829 33.8629 11.7987Z" fill="#EF3120"/>
<path d="M1.50434 13.9321C1.36269 13.6476 1.2053 13.379 1.09513 13.1103C0.670177 12.1937 0.465573 11.2139 0.481312 10.2025C0.51279 9.01719 0.827566 7.89513 1.42564 6.8679C2.10241 5.65103 3.06248 4.73442 4.32158 4.13388C5.39183 3.62817 6.50928 3.42272 7.68969 3.51754C9.40523 3.67558 10.9004 4.32353 12.1123 5.5562C12.7261 6.17254 13.1511 6.89951 13.5131 7.68969C13.6232 7.92674 13.7177 8.1796 13.8121 8.41665C13.8278 8.44826 13.8278 8.49567 13.8436 8.54308C9.73574 10.3289 5.62791 12.1305 1.50434 13.9321ZM3.56612 10.3605C5.65938 9.45969 7.70543 8.57469 9.78296 7.67388C9.75148 7.62647 9.72 7.59486 9.70426 7.56326C9.48392 7.3104 9.2321 7.08915 8.9488 6.89951C8.39794 6.52022 7.79987 6.33058 7.13884 6.36219C6.38337 6.39379 5.67513 6.61504 5.04557 7.05754C3.8809 7.84772 3.47169 8.96978 3.56612 10.3605Z" fill="black"/>
<path d="M18.1557 13.7109C18.8482 13.9953 19.5093 14.264 20.186 14.5327C19.8083 15.4335 19.4148 16.3185 19.0371 17.2193C18.9899 17.2035 18.9427 17.1877 18.8954 17.1719C18.2029 16.8874 17.5104 16.6029 16.8337 16.3027C15.9365 15.9234 15.4329 15.228 15.2912 14.264C15.2598 14.0744 15.2598 13.8847 15.2598 13.6951C15.2598 9.3649 15.2598 5.05053 15.2598 0.720348C15.2598 0.672937 15.2598 0.609723 15.2755 0.546509C16.2356 0.546509 17.1956 0.546509 18.1715 0.546509C18.1557 4.9557 18.1557 9.33329 18.1557 13.7109Z" fill="black"/>
<path d="M24.7036 7.54746C23.0353 9.0488 23.0195 11.6406 24.7036 13.1735C24.0111 13.9479 23.3343 14.7223 22.6418 15.4967C19.6042 12.9207 19.5255 7.92675 22.6418 5.24014C23.3185 5.99871 24.0111 6.77309 24.7036 7.54746Z" fill="#38A7E4"/>
<path d="M3.4873 16.0024C4.03816 15.1806 4.58902 14.3588 5.13988 13.5213C5.1871 13.5529 5.21858 13.5845 5.26579 13.6161C5.94256 14.1534 6.7295 14.3272 7.5794 14.2166C8.44504 14.0902 9.23198 13.7583 9.87727 13.142C10.0819 12.9523 10.255 12.7153 10.4596 12.494C11.278 13.0313 12.1122 13.6003 12.9621 14.1692C12.9149 14.2482 12.8676 14.3114 12.8204 14.3746C12.3325 15.07 11.7187 15.6547 10.9947 16.0972C10.0504 16.682 9.04311 17.0612 7.94139 17.1719C6.76098 17.2983 5.62779 17.0929 4.54181 16.5871C4.22703 16.4449 3.94373 16.2553 3.64469 16.0972C3.58174 16.0814 3.55026 16.0498 3.4873 16.0024Z" fill="black"/>
</svg>