<svg xmlns="http://www.w3.org/2000/svg" width="39" height="17" viewBox="0 0 39 17" fill="none">
<path d="M38.6612 0C38.5525 0.536257 38.4583 1.03628 38.3568 1.52906C38.0235 3.16681 37.6829 4.79732 37.3423 6.43508C36.9945 8.12356 36.6539 9.8048 36.306 11.4933C36.1031 12.4788 35.9147 13.4644 35.6973 14.4427C35.4509 15.5152 34.748 16.1819 33.7189 16.5297C33.1465 16.7182 32.5522 16.8124 31.9507 16.8124C28.8999 16.8051 25.849 16.8124 22.7909 16.8124C16.8124 16.8196 10.8338 16.8196 4.84805 16.8269C3.32624 16.8269 1.80443 16.8341 0.282621 16.8341C0.195661 16.8341 0.115947 16.8269 0 16.8196C0.0217401 16.6819 0.0362331 16.566 0.06522 16.4428C0.710177 13.2687 1.35513 10.1019 2.00734 6.92786C2.30445 5.47127 2.61606 4.01468 2.91318 2.55809C3.15232 1.38412 3.89873 0.681189 5.00023 0.304361C5.59446 0.101453 6.20318 0.0217392 6.83365 0.0217392C12.1382 0.028986 17.4428 0.028986 22.7547 0.0217392C26.6389 0.0217392 30.5231 0.0144921 34.4074 0.0144921C35.7263 0.0144921 37.0452 0.00724715 38.3568 0.00724715C38.451 4.42196e-07 38.538 0 38.6612 0ZM6.89162 10.8338C7.167 10.8338 7.40614 10.8193 7.64528 10.8411C7.83369 10.8556 7.89167 10.7759 7.92065 10.6019C8.18153 9.06563 8.44966 7.52933 8.71779 5.98578C8.76852 5.69592 8.81925 5.41329 8.87722 5.10168C8.57286 5.10168 8.29748 5.09444 8.02211 5.10893C7.97138 5.10893 7.89891 5.19589 7.88442 5.25387C7.83369 5.44953 7.81195 5.65243 7.77572 5.84809C7.68876 6.36261 7.6018 6.86988 7.51484 7.39165C6.64523 7.39165 5.79737 7.39165 4.92776 7.39165C5.06545 6.61625 5.20314 5.86983 5.34807 5.09444C5.07994 5.09444 4.83356 5.10168 4.59441 5.09444C4.42774 5.08719 4.36977 5.15241 4.34078 5.30459C4.05816 6.94235 3.76829 8.58011 3.48567 10.2179C3.44943 10.4135 3.42045 10.6092 3.38421 10.8266C3.67408 10.8266 3.92047 10.8193 4.17411 10.8266C4.31179 10.8338 4.36252 10.7759 4.38426 10.6454C4.42774 10.3483 4.47847 10.0439 4.52919 9.74683C4.63065 9.16709 4.7321 8.58011 4.83356 8.00037C5.70316 8.00037 6.54378 8.00037 7.41338 8.00037C7.23946 8.94244 7.07279 9.86277 6.89162 10.8338ZM33.632 10.8193C33.7334 10.8266 33.8204 10.8338 33.9001 10.8338C34.3784 10.8338 34.3639 10.8338 34.4364 10.3628C34.661 8.94244 34.9002 7.52933 35.1393 6.10898C35.1973 5.73939 35.277 5.37706 35.3567 4.97849C35.0886 4.97849 34.8494 4.97124 34.6103 4.98574C34.5668 4.98574 34.5088 5.0582 34.4943 5.10168C34.4581 5.26836 34.4364 5.44228 34.4074 5.6162C34.3422 6.00752 34.2769 6.3916 34.219 6.76118C33.9074 6.7177 33.632 6.65973 33.3566 6.65248C32.6537 6.63799 32.0305 6.84814 31.5812 7.42788C31.0956 8.05834 30.8782 8.79026 30.9072 9.57291C30.9362 10.5295 31.371 10.9135 32.3348 10.9208C32.7624 10.9208 33.1682 10.8411 33.4798 10.5077C33.545 10.4353 33.603 10.3628 33.69 10.2541C33.6682 10.4715 33.6465 10.6382 33.632 10.8193ZM11.7469 6.74669C11.5658 6.74669 11.3991 6.75394 11.2396 6.74669C11.0802 6.73944 11.015 6.78292 10.986 6.9496C10.7251 8.50039 10.4498 10.0584 10.1744 11.6092C10.1164 11.9498 10.0512 12.2832 9.97872 12.6528C10.2468 12.6528 10.486 12.66 10.7179 12.6455C10.7686 12.6455 10.8411 12.5513 10.8556 12.4933C10.9135 12.1745 10.957 11.8484 11.0005 11.5295C11.0512 11.1744 11.1092 10.8193 11.1599 10.5222C11.3701 10.6527 11.573 10.8628 11.7976 10.9063C12.4933 11.0367 13.1383 10.8701 13.6311 10.3266C14.0949 9.81929 14.2688 9.19608 14.3847 8.53662C14.4499 8.15255 14.4427 7.76847 14.2978 7.40614C14.0804 6.87713 13.5296 6.60175 12.8629 6.65973C12.4354 6.69596 12.0513 6.8264 11.6962 7.12352C11.7179 6.97134 11.7324 6.87713 11.7469 6.74669ZM27.2911 8.18154C26.8998 8.18154 26.4795 8.15255 26.0737 8.18878C24.9577 8.28299 24.2765 8.98592 24.4287 10.1237C24.4794 10.5077 24.6968 10.7614 25.0736 10.8483C25.8128 11.0295 26.4795 10.9353 26.994 10.3048C27.0012 10.2903 27.0302 10.2903 27.052 10.2758C27.0447 10.4642 27.0302 10.6382 27.023 10.8338C27.2331 10.8338 27.4143 10.8266 27.5955 10.8338C27.7332 10.8411 27.7694 10.7759 27.7694 10.6527C27.7694 10.4715 27.7766 10.2903 27.8056 10.1164C27.9288 9.3555 28.0593 8.5946 28.1897 7.83369C28.2912 7.26121 28.11 6.89162 27.6462 6.76843C27.4505 6.7177 27.2476 6.67422 27.052 6.67422C26.523 6.68871 26.0012 6.72495 25.4722 6.75393C25.436 6.75393 25.378 6.78292 25.3707 6.80466C25.32 7.00032 25.2765 7.19598 25.233 7.39165C25.7113 7.32643 26.1461 7.23222 26.5809 7.22497C27.3201 7.21048 27.552 7.47861 27.3273 8.15255C27.3201 8.15255 27.3128 8.1598 27.2911 8.18154ZM17.9501 10.0584C17.8704 10.0802 17.8197 10.0947 17.7762 10.1092C17.3124 10.3121 16.8269 10.3483 16.3341 10.3338C15.9355 10.3193 15.6167 10.0874 15.5369 9.6961C15.4862 9.4642 15.4935 9.21057 15.5152 8.96418C15.5369 8.63808 15.5587 8.63808 15.8775 8.63083C16.6312 8.62359 17.3849 8.62359 18.1313 8.63083C18.269 8.63083 18.3487 8.60185 18.3632 8.44967C18.3849 8.1598 18.4356 7.87717 18.4356 7.58731C18.4356 7.2757 18.2835 7.03656 18.0153 6.87713C17.6168 6.63799 17.1747 6.63074 16.7327 6.66697C16.0225 6.73219 15.4355 7.01482 15.0804 7.66702C14.7326 8.31198 14.5876 9.00766 14.6456 9.73958C14.6818 10.2613 15.0369 10.6889 15.5369 10.8266C16.2834 11.0295 17.0153 10.8991 17.7472 10.7396C17.7907 10.7324 17.8486 10.6599 17.8559 10.6019C17.8849 10.4353 17.9066 10.2613 17.9501 10.0584ZM23.9431 10.0802C23.7909 10.1381 23.675 10.1961 23.5591 10.2106C23.2257 10.2613 22.8924 10.3193 22.559 10.3193C22.2039 10.3121 21.9648 10.0657 21.8996 9.71059C21.7981 9.13086 21.8923 8.57286 22.1242 8.0366C22.4141 7.3844 22.7837 7.167 23.4938 7.23222C23.7982 7.2612 24.1026 7.32642 24.4069 7.37715C24.4359 7.21772 24.4649 7.05105 24.4939 6.89162C24.5156 6.78292 24.4794 6.7177 24.3634 6.7177C23.8417 6.7177 23.3199 6.67422 22.8054 6.7177C22.1677 6.77567 21.7184 7.14526 21.414 7.70325C21.0952 8.30473 20.9502 8.94969 20.9865 9.62363C21.0227 10.3266 21.414 10.8193 22.1459 10.9063C22.675 10.9643 23.1822 10.8918 23.6895 10.7469C23.7475 10.7324 23.8199 10.6527 23.8344 10.5874C23.8924 10.4353 23.9141 10.2758 23.9431 10.0802ZM29.2767 10.8193C29.3419 10.3845 29.3854 9.95698 29.4724 9.54392C29.5811 9.01491 29.6825 8.47865 29.8637 7.97138C30.0376 7.47861 30.4289 7.28294 30.9579 7.31193C31.0594 7.31918 31.1536 7.33367 31.2696 7.34816C31.284 7.25396 31.3058 7.15975 31.3203 7.07279C31.3855 6.73944 31.3275 6.65973 30.9869 6.66697C30.7985 6.67422 30.5811 6.68871 30.4217 6.78292C30.197 6.91336 30.0159 7.10902 29.8202 7.2757C29.842 7.12352 29.8709 6.94959 29.8927 6.76118C29.639 6.76118 29.4071 6.76118 29.1753 6.76118C28.9361 8.11632 28.697 9.4642 28.4578 10.8193C28.7405 10.8193 29.0086 10.8193 29.2767 10.8193ZM18.5516 10.8338C18.7762 10.8338 18.9864 10.8266 19.1965 10.8338C19.3415 10.8411 19.385 10.7904 19.4139 10.6454C19.5444 9.85553 19.6676 9.06563 19.8342 8.27574C19.914 7.88442 20.1314 7.52933 20.5227 7.3844C20.7691 7.29019 21.0589 7.31918 21.3705 7.29019C21.3995 7.15975 21.4358 6.97134 21.472 6.76843C20.7836 6.46407 20.327 6.80466 19.8995 7.35541C19.9357 7.10902 19.9647 6.9351 19.9937 6.75393C19.7328 6.75393 19.5009 6.75393 19.2762 6.75393C19.0299 8.12356 18.7907 9.4642 18.5516 10.8338ZM9.53667 10.8193C9.77581 9.45696 10.015 8.11632 10.2541 6.74669C10.0512 6.74669 9.84828 6.75394 9.64537 6.74669C9.47145 6.73219 9.40623 6.79741 9.37724 6.97133C9.18158 8.10907 8.97867 9.2468 8.78301 10.3845C8.76127 10.5222 8.73229 10.6672 8.71055 10.8193C9.00766 10.8193 9.26854 10.8193 9.53667 10.8193ZM10.5295 5.44953C10.5367 5.14516 10.4425 5.03646 10.1671 5.03646C9.79031 5.02922 9.59464 5.25387 9.5874 5.68142C9.58015 5.93506 9.6961 6.051 9.94973 6.05825C10.2976 6.07274 10.5222 5.8336 10.5295 5.44953Z" fill="#B3121A"/>
<path d="M34.1179 7.36991C34.0527 7.73224 34.0019 8.08008 33.9295 8.42068C33.8498 8.80476 33.7773 9.18883 33.6613 9.55841C33.4729 10.1671 32.857 10.486 32.27 10.3048C32.0308 10.2324 31.8642 10.0802 31.8279 9.84828C31.6975 9.02216 31.8279 8.24676 32.3787 7.58731C32.7555 7.14526 33.2628 7.19599 33.7628 7.26121C33.8787 7.2757 33.9874 7.32643 34.1179 7.36991Z" fill="#B3121A"/>
<path d="M13.5227 8.34821C13.5155 8.90621 13.3705 9.43522 13.0589 9.89901C12.8125 10.2686 12.327 10.4498 11.8994 10.3483C11.5371 10.2613 11.3125 9.99321 11.3559 9.60189C11.3922 9.18158 11.4791 8.76127 11.5516 8.34096C11.5733 8.19603 11.6241 8.05834 11.6241 7.91341C11.6313 7.62354 11.8125 7.4786 12.0371 7.35541C12.4719 7.10902 13.0734 7.16699 13.3415 7.4786C13.4865 7.65977 13.53 7.87717 13.5227 8.34821Z" fill="#B3121A"/>
<path d="M27.1899 8.67433C27.2479 9.44973 26.7841 10.1744 26.1464 10.3266C25.7116 10.4353 25.3202 10.2686 25.2333 9.93526C25.1246 9.51495 25.3637 8.97869 25.7623 8.81202C25.9362 8.73955 26.1319 8.69607 26.3275 8.68158C26.6174 8.65259 26.9073 8.67433 27.1899 8.67433Z" fill="#B3121A"/>
<path d="M15.6816 8.15258C15.8773 7.25399 16.5947 7.09456 17.2614 7.24674C17.5948 7.32646 17.7687 7.79025 17.6165 8.08012C17.602 8.11635 17.5368 8.14534 17.5006 8.14534C16.8991 8.15258 16.2976 8.15258 15.6816 8.15258Z" fill="#B3121A"/>
</svg>