<svg xmlns="http://www.w3.org/2000/svg" width="37" height="24" viewBox="0 0 37 24" fill="none">
<path d="M18.3007 21.5637C11.5645 26.3996 1.58606 22.2432 0.1853 14.0096C-1.04233 6.77156 3.96262 0.418526 11.2654 0.0234372C13.8151 -0.118795 16.1917 0.560757 18.3007 2.0621C18.4581 2.5204 18.0489 2.66263 17.8285 2.86808C15.5779 4.85933 14.0984 7.26147 13.7207 10.2958C13.28 13.8199 14.2401 16.9016 16.6009 19.5566C17.0258 20.0308 17.4823 20.4574 17.9544 20.8841C18.1433 21.0422 18.4581 21.1844 18.3007 21.5637Z" fill="#D40000"/>
<path d="M18.4733 2.0938C25.5086 -2.69468 34.763 1.17719 36.6202 9.1738C38.1941 15.9693 33.3308 22.8597 26.4529 23.5234C23.5412 23.8079 20.8971 23.1283 18.4733 21.5164C18.4733 21.1687 18.7724 21.0423 18.977 20.8526C21.2748 18.8456 22.8015 16.4118 23.1792 13.3301C23.5884 9.94817 22.7228 6.92969 20.5351 4.3063C20.0472 3.72157 19.4806 3.21585 18.914 2.69433C18.7251 2.5363 18.4576 2.40987 18.4733 2.0938Z" fill="#FE9700"/>
<path d="M18.4734 2.09383C21.8415 4.66981 23.62 8.03597 23.4626 12.3029C23.3682 15.1002 22.3924 17.5813 20.4722 19.6358C19.8427 20.2995 19.2131 20.9633 18.4577 21.5006C18.3947 21.5164 18.3475 21.5322 18.2845 21.548C18.2373 21.1687 17.8753 21.0897 17.655 20.9001C14.8377 18.3873 13.3111 15.3056 13.4055 11.4811C13.4999 7.78311 15.121 4.84365 17.9068 2.50472C18.0642 2.36249 18.2531 2.26767 18.2845 2.04642C18.3632 2.07802 18.4104 2.07802 18.4734 2.09383Z" fill="#FE3D00"/>
</svg>