<svg xmlns="http://www.w3.org/2000/svg" width="30" height="21" viewBox="0 0 30 21" fill="none">
<path d="M15.1483 0.395325C18.9413 0.395325 22.7344 0.395325 26.5432 0.395325C27.9124 0.395325 28.9355 1.1539 29.2817 2.40238C29.3604 2.68684 29.3919 2.97131 29.3919 3.25577C29.3919 8.15487 29.3919 13.054 29.3919 17.9531C29.3919 19.6599 28.243 20.8293 26.5432 20.8293C18.9413 20.8293 11.3395 20.8293 3.72189 20.8293C2.00636 20.8293 0.857422 19.6757 0.857422 17.9373C0.857422 13.054 0.857422 8.17068 0.857422 3.28737C0.857422 1.54898 1.99062 0.395325 3.72189 0.395325C7.53068 0.395325 11.3395 0.395325 15.1483 0.395325Z" fill="#1565BF"/>
<path d="M23.6473 7.20662C23.9306 7.23823 24.3713 7.04859 24.5917 7.28564C24.7963 7.49109 24.7648 7.91778 24.8277 8.24966C25.237 10.2725 25.6304 12.2796 26.0554 14.3024C26.1183 14.6027 26.1026 14.7607 25.7249 14.7291C25.3471 14.6975 24.9537 14.7133 24.5759 14.7291C24.4185 14.7291 24.3398 14.6817 24.3241 14.5078C24.3084 14.334 24.2297 14.176 24.2297 14.0179C24.2139 13.7335 24.088 13.6387 23.8047 13.6545C23.2066 13.6703 22.6086 13.6703 22.0105 13.6545C21.8059 13.6545 21.6957 13.7019 21.617 13.9073C21.318 14.7291 21.3022 14.7291 20.4366 14.7291C20.1848 14.7291 19.933 14.7133 19.6812 14.7291C19.4608 14.7449 19.4136 14.6659 19.508 14.4604C19.7913 13.8283 20.0589 13.1804 20.3264 12.5324C21.0347 10.873 21.7429 9.21367 22.4354 7.5543C22.5456 7.28564 22.6873 7.17502 22.9706 7.22243C23.1594 7.23823 23.3798 7.20662 23.6473 7.20662Z" fill="#FEFEFE"/>
<path d="M15.8253 14.6976C15.3374 14.6976 14.7708 14.6027 14.2357 14.4131C14.0469 14.3499 13.9682 14.2709 14.0311 14.0496C14.1255 13.7177 14.1885 13.3701 14.2515 13.0224C14.2829 12.8327 14.3616 12.8011 14.5348 12.8801C15.2273 13.1488 15.9355 13.2752 16.691 13.1488C16.8011 13.133 16.9113 13.1014 17.0057 13.0698C17.5409 12.8643 17.6196 12.3744 17.1946 11.9952C16.9743 11.8055 16.7067 11.6791 16.4549 11.5526C16.1559 11.3946 15.8568 11.2524 15.5735 11.0627C14.4718 10.241 14.4718 8.61318 15.605 7.823C16.4391 7.22246 17.415 7.14344 18.3908 7.23827C18.7528 7.26987 19.1147 7.3805 19.4767 7.47532C19.6499 7.52273 19.6813 7.60175 19.6499 7.75979C19.5712 8.15488 19.4925 8.53416 19.4138 8.92925C19.3666 9.18211 19.2249 9.05568 19.1305 8.99247C18.5796 8.6922 18.013 8.58157 17.3992 8.72381C17.2418 8.75541 17.1002 8.80282 16.9743 8.89764C16.6438 9.1347 16.6438 9.48238 16.9428 9.75104C17.1474 9.94068 17.415 10.0513 17.651 10.1619C17.9973 10.3358 18.3593 10.5096 18.6741 10.7625C19.524 11.4262 19.6656 12.3902 19.0203 13.2752C18.4852 13.9864 17.7455 14.3657 16.9271 14.5869C16.5965 14.6818 16.2503 14.7134 15.8253 14.6976Z" fill="#FEFEFE"/>
<path d="M7.04274 10.9837C7.13717 11.4736 7.23161 11.9477 7.35752 12.5166C7.42047 12.3428 7.46769 12.2479 7.49917 12.1373C8.01855 10.6044 8.53793 9.05562 9.04157 7.52268C9.12027 7.28562 9.2147 7.2066 9.46652 7.2066C10.0331 7.22241 10.6155 7.2066 11.1978 7.2066C11.1978 7.39625 11.1034 7.53848 11.0561 7.68071C10.1748 9.90902 9.29339 12.1373 8.42776 14.3656C8.31759 14.6343 8.19167 14.7291 7.90838 14.7133C7.42047 14.6817 6.91683 14.6975 6.42893 14.7133C6.20858 14.7133 6.11415 14.6501 6.06693 14.4288C5.54755 12.3902 5.02817 10.3515 4.50879 8.31285C4.6347 8.21803 4.72913 8.32866 4.82357 8.39187C5.51607 8.85018 6.14563 9.37169 6.63353 10.0512C6.80666 10.3357 6.93257 10.6518 7.04274 10.9837Z" fill="#FEFEFE"/>
<path d="M12.9921 7.2066C13.3069 7.22241 13.606 7.23821 13.9207 7.25401C13.8893 7.55428 13.8578 7.87036 13.8106 8.17062C13.48 10.2567 13.1495 12.3586 12.819 14.4447C12.7875 14.6501 12.7246 14.7291 12.5042 14.7291C12.0321 14.7133 11.5756 14.7133 11.1035 14.7291C10.8517 14.7449 10.8359 14.6343 10.8674 14.4288C11.1192 12.8169 11.371 11.2207 11.6071 9.60875C11.7173 8.91339 11.8432 8.20223 11.9219 7.50687C11.9534 7.26982 12.0478 7.2066 12.2682 7.22241C12.52 7.22241 12.7561 7.2066 12.9921 7.2066Z" fill="#FEFEFE"/>
<path d="M7.04232 10.9837C6.47572 9.79841 5.61009 8.92921 4.47689 8.31287C3.91029 7.90198 3.265 7.68073 2.54102 7.36466C3.64273 7.36466 4.65002 7.33305 5.64156 7.38046C6.03503 7.39627 6.36555 7.68073 6.44424 8.06002C6.68033 9.02404 6.83771 10.0039 7.04232 10.9837Z" fill="#FEC007"/>
<path d="M22.2627 12.2006C22.6089 11.284 22.9395 10.3832 23.3172 9.37177C23.4588 10.0671 23.5848 10.6519 23.6949 11.2366C23.7421 11.5369 23.9782 11.9478 23.8208 12.1374C23.6477 12.3429 23.207 12.1848 22.8922 12.2006C22.6876 12.2164 22.4988 12.2006 22.2627 12.2006Z" fill="#1665BF"/>
</svg>